<?xml version="1.0" encoding="UTF-8"?>
<svg id="Layer_1" data-name="Layer 1" xmlns="http://www.w3.org/2000/svg" version="1.1" viewBox="0 0 500 478">
  <defs>
    <style>
      .cls-1 {
        fill: #fcfaf8;
      }

      .cls-1, .cls-2, .cls-3, .cls-4 {
        stroke-width: 0px;
      }

      .cls-2 {
        fill: #4778d4;
      }

      .cls-3 {
        fill: #241e9b;
      }

      .cls-4 {
        fill: #dc573d;
      }
    </style>
  </defs>
  <g>
    <path class="cls-4" d="M150.77,475.42c-31.87,0-59.23-9.58-79.11-27.72-32.65-29.78-43.33-79.55-30.08-140.14,13.14-60.09,48.29-123.79,98.98-179.36C211.23,50.72,300.41,2.58,373.29,2.58c31.87,0,59.23,9.58,79.11,27.72,66.98,61.1,36.07,204.42-68.9,319.5-70.68,77.48-159.86,125.62-232.73,125.62Z"/>
    <path class="cls-1" d="M373.29,5.16c30.48,0,57.25,8.7,77.37,27.04,66.03,60.23,35.11,201.65-69.07,315.86-72.44,79.42-161.25,124.78-230.83,124.78-30.48,0-57.25-8.69-77.37-27.04C7.36,385.56,38.28,244.15,142.46,129.94,214.9,50.52,303.71,5.17,373.29,5.16M373.31,0h-.02c-73.58,0-163.49,48.47-234.64,126.46-50.99,55.9-86.36,120.02-99.59,180.55-13.46,61.53-2.5,112.18,30.86,142.6,20.36,18.57,48.32,28.39,80.85,28.39,73.58,0,163.49-48.46,234.64-126.46,50.99-55.9,86.36-120.02,99.59-180.55,13.45-61.53,2.5-112.18-30.86-142.6C433.77,9.82,405.82,0,373.31,0h0Z"/>
  </g>
  <path class="cls-1" d="M296.59,456.57c-3.42,0-6.79-.93-9.73-2.69-5.36-3.2-8.79-8.84-9.18-15.07-.3-4.81.27-9.3.73-12.91l.08-.65c.41-3.27,1.65-6.32,3.58-8.91-2.41-4.06-3.24-8.91-2.22-13.65.03-.13.05-.26.08-.38-2.15.79-4.45,1.64-6.94,2.55-2.09.76-4.27,1.14-6.48,1.14-3.62,0-7.18-1.05-10.21-2.99-14.68,6.61-30.61,11.98-46.23,15.57l-4.65,1.07c-1.39.32-2.82.48-4.24.48-4.83,0-9.42-1.82-12.95-5.11-2.06-1.93-3.63-4.27-4.64-6.84-25.02,18.59-54.07,29.74-69.94,34.93-1.9.62-3.88.94-5.89.94-4.07,0-7.96-1.28-11.24-3.69-4.92-3.62-7.8-9.43-7.71-15.54.56-37.38,13.22-89.4,20.72-117.08,1.03-3.81,3.19-7.15,6.24-9.67.45-.37.92-.75,1.39-1.13-.98-1.47-1.75-3.07-2.29-4.76-27.46,21.15-65.28,39.03-90.62,46.43-1.73.51-3.51.76-5.31.76-4.14,0-8.22-1.38-11.51-3.9C2.67,331.81-.11,326.05,0,320.05c.33-16.98,2.93-33.56,5.45-49.59l.63-4.02c4.72-30.05,11.67-62.6,21.88-102.45,1.06-4.15,3.53-7.86,6.95-10.43,12.87-9.7,39-27.01,69.4-33.99,7.8-1.79,14.58-2.67,20.7-2.67,8.83,0,16.41,1.81,22.63,5.4.2-.53.4-1.05.6-1.57,1.47-3.79,4.05-6.96,7.48-9.14,14.18-9.05,29.93-16.65,45.52-21.98,1.98-.68,4.04-1.02,6.13-1.02,3.14,0,6.24.8,8.99,2.28,14.4-8.37,29.22-13.4,39.36-16.2,1.33-.4,2.81-.66,4.31-.74.33-.02.68-.03,1.03-.03.18,0,.37,0,.55,0,10.32.29,18.4,8.61,18.4,18.94,0,2.12-.35,4.2-1.03,6.18-7.74,24.58-17.17,55.79-23.69,85.42,2.62-1.46,5.28-3.02,7.99-4.67,6.61-35.88,15.3-68.64,25.17-94.85.93-2.46,2.32-4.66,4.15-6.53,10.07-10.35,25.83-19.17,40.14-22.46,5.05-1.16,10.49-1.75,16.18-1.75h.62c4.84.04,9.41,1.91,12.85,5.14,7.14-4.94,14.25-9.32,20.13-12.94,2.99-1.84,6.43-2.82,9.94-2.82,2.81,0,5.64.64,8.18,1.86,5.84,2.79,9.8,8.29,10.62,14.71.1.77.28,1.63.52,2.71.53-.99,1.07-1.98,1.6-2.97,1.47-2.75,3.63-5.12,6.24-6.85,15.82-10.47,35.01-19.61,55.47-26.41,1.93-.64,3.95-.97,5.98-.97,5.88,0,11.32,2.66,14.94,7.29,4.92,6.31,5.34,15.08,1.04,21.83-9.96,15.65-19.2,32.89-27.07,47.83-16.84,32.3-32.56,65.95-47.96,102.65,15.37.96,26.86,10.57,30.3,25.56,1.06,4.62,1.13,8.74,1.08,11.82.02,31.42-22.52,59.4-34.98,72.45l10.91,14.16c2.97,3.85,4.3,8.68,3.81,13.46,1.21.91,2.3,1.97,3.27,3.16,4.9,6.04,5.63,14.33,1.86,21.13-6.8,12.26-12.96,26.25-19.96,45.37-1.26,3.45-3.48,6.43-6.42,8.64-3.58,2.69-8.99,6.75-17.58,8.62l-1.03.22c-1.29.27-2.62.41-3.94.41-2.64,0-5.26-.57-7.67-1.64-.32.28-.66.55-1,.8-3.58,2.69-8.99,6.75-17.58,8.63l-1.03.22c-1.29.28-2.62.41-3.94.41-2.57,0-5.09-.52-7.43-1.52-4.65,3.45-9.89,6.34-15.62,8.62-2.24.89-4.59,1.34-6.99,1.34-1.31,0-2.64-.15-3.97-.44-.26.09-.52.18-.77.26-5.15,1.6-11.64,4.58-17.36,7.21l-1.5.69c-2.5,1.14-5.16,1.72-7.9,1.72ZM350.97,128.22c-3.4,12.35-6.22,24.6-8.45,36.61,4.75-1.92,9.44-3.76,13.94-5.51,1.83-.71,3.73-1.13,5.67-1.25-3.67-9.34-7.55-19.47-11.16-29.85Z"/>
  <path class="cls-3" d="M492.26,35.87c-2.74-3.52-6.91-5.47-11.2-5.47-1.5,0-3.01.24-4.48.73-20.07,6.68-38.87,15.62-54.35,25.87-1.96,1.3-3.57,3.06-4.68,5.13-1.55,2.9-3.13,5.79-4.7,8.69-.9,1.65-1.8,3.31-2.7,4.98-1-3.58-1.93-7.21-2.77-10.84-.39-1.69-.68-2.97-.84-4.21-.61-4.79-3.6-8.94-7.96-11.03-1.94-.93-4.04-1.39-6.13-1.39-2.59,0-5.17.71-7.45,2.11-7.15,4.4-15.43,9.52-23.5,15.32-.11-.18-.2-.37-.32-.55-2.62-3.89-6.98-6.23-11.67-6.27h-.6c-5.33,0-10.42.54-15.11,1.62-13.48,3.1-28.32,11.39-37.8,21.14-1.36,1.4-2.42,3.07-3.11,4.9-10.1,26.82-18.81,60.13-25.35,96.24-.42.2-.84.4-1.23.65-6.18,3.8-12.15,7.11-17.73,9.82,6.37-31.95,16.85-67.04,25.9-95.77.51-1.47.79-3.05.79-4.69,0-7.71-6.14-13.98-13.79-14.2-.14,0-.27,0-.41,0-.26,0-.51,0-.77.02-1.14.06-2.25.26-3.3.57-10.81,2.98-26.19,8.32-40.74,17.21-2.54-2.04-5.68-3.13-8.88-3.13-1.54,0-3.09.25-4.59.76-15.25,5.21-30.64,12.64-44.5,21.49-2.55,1.63-4.52,4.03-5.61,6.85-.92,2.39-1.83,4.83-2.73,7.31-5.21-4.56-13.06-8.11-24.93-8.11h0c-5.76,0-12.19.83-19.64,2.55-29.55,6.78-55.04,23.68-67.61,33.15-2.57,1.94-4.41,4.7-5.21,7.82-10.17,39.71-17.09,72.12-21.79,102.01l-.63,4.02c-2.49,15.88-5.07,32.29-5.39,48.95-.09,4.52,1.98,8.81,5.57,11.55,2.51,1.92,5.55,2.92,8.63,2.92,1.33,0,2.67-.19,3.98-.57,25.54-7.46,67.62-27.05,96.02-51.28-.07.9-.14,1.81-.2,2.71-.32,4.65,1.68,9.15,5.32,12.05-2.07,1.59-3.85,3.02-5.28,4.2-2.27,1.87-3.9,4.4-4.67,7.25-7.44,27.47-20,79.05-20.55,115.91-.07,4.59,2.08,8.93,5.78,11.65,2.47,1.82,5.43,2.77,8.42,2.77,1.48,0,2.97-.23,4.41-.7,15.83-5.17,48.89-17.72,74.94-39.19-.57,4.51,1.03,9.03,4.36,12.15,2.66,2.49,6.14,3.83,9.71,3.83,1.06,0,2.12-.12,3.18-.36l4.65-1.07c16.37-3.76,32.8-9.41,47.93-16.45.24.22.47.46.74.67,2.55,2.03,5.68,3.08,8.84,3.08,1.63,0,3.28-.28,4.86-.86,5.01-1.82,10.09-3.7,15.21-5.64-.91,2.59-1.35,4.94-1.7,6.89-.12.65-.24,1.33-.39,2.04-1.02,4.72.44,9.59,3.78,12.97-2.8,2.3-4.62,5.59-5.08,9.19l-.08.65c-.44,3.41-.98,7.66-.7,12.01.29,4.67,2.87,8.89,6.88,11.3,2.24,1.34,4.76,2.01,7.29,2.01,2.01,0,4.03-.43,5.92-1.29l1.45-.67c5.87-2.7,12.53-5.75,17.98-7.45.64-.2,1.25-.44,1.85-.72,1.39.44,2.83.69,4.3.69,1.76,0,3.53-.33,5.24-1,6.4-2.54,12.06-5.87,16.88-9.85,2.34,1.57,5.09,2.42,7.91,2.42.98,0,1.97-.1,2.96-.31l1-.21c7.57-1.65,12.29-5.2,15.74-7.78,1.14-.85,2.12-1.87,2.95-3.01,2.47,1.87,5.48,2.9,8.56,2.9.98,0,1.97-.1,2.96-.31l1-.21c7.57-1.65,12.29-5.2,15.74-7.78,2.2-1.65,3.87-3.9,4.81-6.47,7.09-19.36,13.34-33.56,20.27-46.04,2.81-5.07,2.26-11.34-1.39-15.84-1.35-1.66-3.02-2.96-4.88-3.85,1.35-4.36.58-9.16-2.28-12.87l-13.42-17.43c18.58-18.45,36.53-45.42,36.51-72.16.05-3.01-.03-6.61-.96-10.67-3.16-13.75-13.71-21.96-28.24-21.96-1.5,0-3.05.1-4.64.27,16.31-39.38,33.06-75.47,50.96-109.8,7.9-14.99,17.21-32.37,27.27-48.17,3.23-5.07,2.92-11.62-.78-16.36ZM367.9,163.53c-1.47-.5-3.02-.76-4.57-.76-1.74,0-3.48.32-5.15.97-7.12,2.77-14.44,5.66-21.81,8.76,3.18-19.5,8.07-40.04,14.32-60.24,5.3,17.06,11.79,33.83,17.95,49.4-.25.63-.5,1.25-.75,1.88Z"/>
  <g>
    <path class="cls-1" d="M20.31,264.89c5.33-33.95,13-67.42,21.52-100.69,17.74-13.36,40.37-25.63,62.25-30.66,12.85-2.95,33.25-5.62,37.13,11.27,5.82,25.33-22.96,51.33-39.85,65.71,11.66-.25,23.59,5.09,26.41,17.37,2.25,9.79-2.45,18.34-8.47,25.58-21.81,26.42-72.47,53-104.84,62.46.33-17.04,3.24-34.28,5.85-51.04ZM94.68,172.67c-.75-3.26-5.02-2.48-7.32-1.96-4.99,1.15-10.1,3.53-14.59,5.98-2.64,10.51-5.47,21.05-8.34,31.41,7.49-4.35,32.49-25.64,30.25-35.43ZM83.45,239.89c-1.19-5.18-8.94-4.61-12.78-3.73-4.22.97-8.07,2.66-11.84,4.74-2.69,8.5-3.89,18.26-4.68,27.13,7.23-3.68,31.59-18.16,29.29-28.14Z"/>
    <path class="cls-1" d="M161.44,123.07c12.86-8.21,27.04-15.1,41.46-20.03-17.11,50.39-30.07,105.68-36.76,158.33-11.39,8.47-24.42,15.91-37.7,20.57,3.46-50.89,14.76-111.66,33-158.88Z"/>
    <path class="cls-1" d="M179.94,269.19c6.97-49.68,18.82-116.84,35.9-162.98,12.09-8.03,26.87-14.05,40.75-17.84-11.8,37.45-25.44,83.61-30.53,122.15l1.15-.27c13.82-3.17,30.03-11.75,42.06-19.15-1.04,16.6-5.95,33.89-10.6,49.7-15.87,10.92-40.3,24.2-58.91,28.48-6.33,1.45-13.61,2.32-19.82-.09Z"/>
    <path class="cls-1" d="M267.87,247.6c4.89-51.36,15.83-112.66,33.84-160.48,7.71-7.93,20.24-14.78,30.8-17.2,3.96-.91,8.24-1.3,12.42-1.26-15.1,38.02-26.75,82.4-30.35,122.94,14.22-7.24,29.32-13.29,44.27-19.1-.91,13.32-4.09,27.15-6.41,40.4-14.94,15.35-47.84,26.87-67.84,31.47-5.47,1.26-11.17,2.37-16.73,3.25Z"/>
    <path class="cls-1" d="M350.29,234.36c8.57-26.01,19.05-51.64,29.14-77.19-9.61-24.26-19.72-49.81-25.58-75.33,10.25-9.02,22.62-16.71,34.13-23.8.25,1.96.65,3.69,1.09,5.61,3.48,15.16,8.54,30.16,13.9,44.68,6.64-15.06,14.85-29.47,22.62-43.98,15.43-10.21,33.35-18.37,50.99-24.23-10.09,15.85-19.16,32.68-27.88,49.23-22.02,42.22-41.53,85.69-59.24,129.96-11.96,5.98-24.97,11.79-38.02,14.79l-1.15.26Z"/>
    <path class="cls-1" d="M363.64,321.27l-5.2,29.84c-9.05,2.86-17.99,8.2-25.97,13.01,3.8-35.93,9.35-72.43,18.39-107.37,13.37-14.03,37.62-31.81,56.65-36.18,9.52-2.19,19.3-1.15,21.86,10.01.58,2.53.65,4.86.6,7.38.09,26.27-22.59,54.96-41.55,70.58l21.41,27.8c-3.99,7.18-14.92,14.07-22.02,17.27l-24.17-32.33ZM369.76,291.37c6.32-5.21,29.58-25.89,27.19-36.3-.48-2.08-2.13-2.48-4.07-2.04-4.91,1.13-12.31,7.05-16.22,10.46l-6.9,27.88Z"/>
    <path class="cls-1" d="M284.59,258.41c19.91-10.54,42.36-17.99,63.81-24.44l-6.73,28.61-31.94,14.06c-2.44,6.68-4.53,13.58-5.85,20.46l28.37-8.96-4.41,22.73-26.24,10.92c-3.28,5.04-4.85,15.49-5.36,21.26l26.24-8.93-3.11,24.42c-18.3,9.55-38,16.98-57.33,24.02,5.1-41.69,13.46-83.22,22.56-124.15Z"/>
    <path class="cls-1" d="M196.7,396.69c3.53-21.91,7.57-43.64,12.21-65.35,4.29-19.95,8.8-40.25,15.57-59.39,16.44-6.99,33.47-12.73,50.36-18.44l-6.49,27.03-2.47.57c-6.39,1.47-12.73,3.84-18.4,7.13-2.99,6.96-4.66,14.99-6.18,22.37,5.45-3.55,19.12-7.3,25.3-9.02l-7.49,26.65c-7.18,2.72-14.14,5.69-21.1,8.67-2.59,6.71-4.28,13.98-5.9,20.93,9.52-2.49,18.87-5.71,27.95-9.48l-7.31,28.75c-16.03,8.12-33.98,14.53-51.41,18.53l-4.65,1.07Z"/>
    <path class="cls-1" d="M123.34,308.19c15.69-12.93,37.5-26.5,57.54-31.11,10.6-2.44,21.11-3.32,24.04,9.46,3.47,15.1-13.44,31.37-23.58,39.82,8.45-1.18,17.27,4.6,19.2,13.02,1.9,8.28-2.34,16.44-6.8,22.97-19.05,28.23-59.02,47.96-90.45,58.24.49-33.14,11.54-80.94,20.06-112.41ZM166.1,308.62c-.47-2.03-2.75-1.97-4.34-1.6-4.79,1.1-11.34,5.2-15.59,8.02-1.36,6.73-2.57,13.43-4.11,20.06,7.09-3.77,26.35-16.45,24.05-26.47ZM163.33,353.14c-.9-3.92-5.18-3.25-8.08-2.58-5.08,1.17-12.71,4.6-16.85,7.85-1.67,8.03-3.28,16.35-4.01,24.47,7.71-4.37,31.46-18.85,28.95-29.74Z"/>
  </g>
  <g>
    <polygon class="cls-2" points="365.06 323.17 363.7 321.36 363.62 321.38 363.21 323.73 365.06 323.17"/>
    <path class="cls-2" d="M402.96,108.33s.03-.06.04-.09l-.07.02s.02.05.03.07Z"/>
    <polygon class="cls-2" points="363.64 321.27 363.62 321.38 363.7 321.36 363.64 321.27"/>
    <path class="cls-2" d="M111.87,132.05l-31.33,9.41c-.87.38-1.73.76-2.59,1.15l36.14-10.85c-.74.09-1.48.18-2.22.29Z"/>
    <path class="cls-2" d="M126.66,131.85l-66.13,19.86c-.46.27-.92.54-1.37.82l68.34-20.52c-.28-.06-.56-.1-.84-.15Z"/>
    <path class="cls-2" d="M133.38,134.08l-85.3,25.61c-.36.25-.71.5-1.06.75l86.84-26.08c-.16-.09-.32-.19-.48-.28Z"/>
    <path class="cls-2" d="M137.33,137.13l-95.93,28.81c-.04.16-.08.33-.12.49l96.37-28.94c-.1-.12-.21-.24-.32-.36Z"/>
    <path class="cls-2" d="M139.74,140.65l-99.51,29.88c-.04.17-.09.35-.13.52l99.83-29.98c-.07-.14-.12-.29-.19-.42Z"/>
    <path class="cls-2" d="M141.21,144.81c-.03-.12-.06-.22-.09-.34l-102.04,30.64c-.05.18-.09.37-.14.55l102.3-30.72s-.01-.09-.03-.13Z"/>
    <path class="cls-2" d="M141.79,148.51l-103.85,31.18c-.05.19-.09.38-.14.58l104.04-31.24c-.01-.17-.04-.35-.05-.52Z"/>
    <path class="cls-2" d="M141.93,152.71l-105.11,31.56c-.05.2-.1.4-.15.61l105.23-31.6c0-.19.02-.38.03-.57Z"/>
    <path class="cls-2" d="M141.39,157.7c.04-.21.08-.42.12-.62l-47.49,14.26c.13.14.24.31.34.49l47.04-14.12Z"/>
    <path class="cls-2" d="M72.49,177.8l-36.78,11.05c-.05.21-.1.42-.15.64l36.77-11.04c.05-.21.11-.43.16-.64Z"/>
    <path class="cls-2" d="M140.48,161.63l-45.79,13.75c-.04.22-.08.43-.14.66l45.72-13.73c.07-.23.15-.45.21-.68Z"/>
    <path class="cls-2" d="M71.32,182.39l-36.69,11.02c-.05.22-.1.44-.16.66l36.67-11.01c.06-.22.11-.44.17-.67Z"/>
    <path class="cls-2" d="M138.81,166.37l-45.95,13.8c-.14.26-.29.51-.44.77l46.08-13.84c.11-.25.22-.49.32-.74Z"/>
    <path class="cls-2" d="M70.13,186.99l-36.56,10.98c-.05.23-.11.46-.16.69l36.54-10.97c.06-.23.12-.46.18-.7Z"/>
    <path class="cls-2" d="M136.49,171.31l-47.17,14.16c-.23.29-.46.58-.69.88l47.44-14.24c.14-.27.29-.53.43-.8Z"/>
    <path class="cls-2" d="M68.92,191.6l-36.41,10.93c-.05.24-.11.48-.16.72l36.38-10.93c.06-.24.13-.48.19-.73Z"/>
    <path class="cls-2" d="M67.68,196.21l-36.19,10.87c-.06.25-.11.5-.17.75l36.16-10.86c.07-.25.14-.5.2-.76Z"/>
    <path class="cls-2" d="M133.49,176.45l-49.1,14.74c-.31.33-.62.65-.93.98l49.48-14.86c.19-.29.36-.57.55-.86Z"/>
    <path class="cls-2" d="M66.44,200.82l-35.96,10.8c-.06.26-.12.51-.17.77l35.92-10.79c.07-.26.14-.52.22-.79Z"/>
    <path class="cls-2" d="M129.78,181.8l-51.61,15.5c-.4.36-.79.72-1.19,1.08l52.08-15.64c.24-.31.48-.62.72-.94Z"/>
    <path class="cls-2" d="M70.45,203.86c-.55.43-1.09.84-1.61,1.23l55.58-16.69c.29-.33.58-.67.87-1.01l-54.84,16.47Z"/>
    <path class="cls-2" d="M65.17,205.44l-35.68,10.72c-.06.27-.11.53-.17.8l35.63-10.7c.08-.27.15-.54.22-.82Z"/>
    <path class="cls-2" d="M120.02,193.21l-91.49,27.47c-.06.28-.12.55-.17.83l90.62-27.21c.35-.36.7-.72,1.04-1.09Z"/>
    <path class="cls-2" d="M113.94,199.28l-86.37,25.94c-.06.29-.12.57-.18.86l85.31-25.62c.41-.39.83-.78,1.24-1.17Z"/>
    <path class="cls-2" d="M107.06,205.59l-80.4,24.14c-.06.29-.11.59-.17.88l79.15-23.77c.47-.41.95-.83,1.43-1.26Z"/>
    <path class="cls-2" d="M104.45,210.61l-78.68,23.63c-.06.3-.12.6-.18.91l81.02-24.33c-.72-.09-1.43-.16-2.16-.21Z"/>
    <path class="cls-2" d="M112.99,212.29l-88.11,26.46c-.06.31-.12.62-.18.94l89.61-26.91c-.44-.17-.88-.33-1.33-.48Z"/>
    <path class="cls-2" d="M118.45,214.89l-94.4,28.35c-.06.32-.12.64-.17.96l95.53-28.68c-.31-.22-.63-.42-.95-.62Z"/>
    <path class="cls-2" d="M122.32,217.97l-99.08,29.75c-.06.33-.12.66-.18.99l99.96-30.01c-.22-.25-.46-.49-.69-.73Z"/>
    <path class="cls-2" d="M58.72,241.3l-36.3,10.9c-.06.34-.11.67-.17,1.01l36.17-10.86c.1-.35.2-.7.31-1.05Z"/>
    <path class="cls-2" d="M125.54,222.2c-.16-.28-.32-.55-.48-.81l-47.61,14.29c.67.07,1.33.2,1.95.37l46.14-13.85Z"/>
    <path class="cls-2" d="M126.89,225.07l-44.11,13.24c.17.26.31.55.44.86l44-13.21c-.1-.3-.21-.6-.33-.89Z"/>
    <path class="cls-2" d="M57.46,245.92l-35.78,10.75c-.06.35-.11.69-.17,1.04l35.7-10.72c.08-.36.17-.71.26-1.06Z"/>
    <path class="cls-2" d="M56.47,250.46l-35.53,10.67c-.06.36-.12.71-.18,1.07l35.51-10.66c.07-.36.13-.72.2-1.07Z"/>
    <path class="cls-2" d="M127.97,228.99l-44.47,13.35c-.06.36-.14.72-.24,1.09l44.87-13.47c-.04-.32-.1-.64-.16-.96Z"/>
    <path class="cls-2" d="M55.7,254.93l-35.49,10.66c-.06.36-.11.73-.17,1.09l35.5-10.66c.05-.36.1-.73.16-1.09Z"/>
    <path class="cls-2" d="M128.33,233.12l-46.94,14.1c-.3.44-.62.89-.97,1.33l47.86-14.37c.02-.35.04-.7.05-1.05Z"/>
    <path class="cls-2" d="M55.08,259.36l-35.58,10.68c-.06.37-.12.74-.18,1.12l35.61-10.69c.04-.37.09-.74.14-1.11Z"/>
    <path class="cls-2" d="M127.84,237.51l-51.58,15.49c-.58.54-1.18,1.08-1.81,1.61l53.13-15.95c.1-.38.18-.76.26-1.14Z"/>
    <path class="cls-2" d="M67.67,259.82c-.97.68-1.94,1.34-2.89,1.96l61.09-18.34c.19-.41.37-.83.54-1.25l-58.73,17.64Z"/>
    <path class="cls-2" d="M54.58,263.75l-35.77,10.74c-.06.38-.12.76-.18,1.15l35.82-10.76c.04-.37.08-.75.12-1.13Z"/>
    <path class="cls-2" d="M123.84,247.19l-105.71,31.74c-.06.39-.12.78-.18,1.17l105.01-31.53c.3-.46.6-.92.88-1.38Z"/>
    <path class="cls-2" d="M119.3,253.47c.25-.3.48-.6.72-.9l-102.54,30.79c-.06.4-.11.8-.17,1.2l101.45-30.46c.18-.21.37-.42.54-.63Z"/>
    <path class="cls-2" d="M114.96,258.34l-98.1,29.46c-.05.41-.11.81-.16,1.22l96.62-29.01c.55-.55,1.11-1.11,1.64-1.67Z"/>
    <path class="cls-2" d="M108.6,264.49l-92.31,27.72c-.05.41-.1.83-.15,1.24l90.43-27.15c.69-.6,1.37-1.21,2.04-1.81Z"/>
    <path class="cls-2" d="M100.81,271.07l-85.03,25.53c-.05.42-.09.84-.13,1.27l82.6-24.8c.87-.66,1.71-1.33,2.55-1.99Z"/>
    <path class="cls-2" d="M91.23,278.19l-75.89,22.79c-.04.43-.08.86-.12,1.29l72.77-21.85c1.09-.74,2.16-1.48,3.23-2.22Z"/>
    <path class="cls-2" d="M79.34,285.99l-64.37,19.33c-.03.44-.07.87-.1,1.31l60.31-18.11c1.4-.83,2.78-1.68,4.16-2.53Z"/>
    <path class="cls-2" d="M64.08,294.82l-49.38,14.83c-.02.44-.04.88-.06,1.32l43.67-13.11c1.93-.99,3.86-2,5.78-3.04Z"/>
    <path class="cls-2" d="M14.52,313.94c-.01.45-.03.9-.04,1.34l15.4-4.62c3.84-1.48,7.79-3.11,11.82-4.88l-27.18,8.16Z"/>
    <path class="cls-2" d="M202.28,104.91l-16.41,4.93c-.76.35-1.52.7-2.27,1.06l18.54-5.57c.05-.14.09-.28.14-.42Z"/>
    <path class="cls-2" d="M200.71,109.62l-33.98,10.2c-.44.26-.88.53-1.32.8l35.15-10.56c.05-.15.1-.3.15-.45Z"/>
    <path class="cls-2" d="M199.17,114.32l-38.84,11.66c-.06.16-.12.32-.18.48l38.87-11.67c.05-.16.1-.32.15-.47Z"/>
    <path class="cls-2" d="M197.52,119.51c.05-.17.11-.34.16-.5l-39.1,11.74c-.06.17-.12.34-.19.51l39.12-11.75Z"/>
    <path class="cls-2" d="M196.21,123.69l-39.3,11.8c-.06.18-.13.36-.19.54l39.33-11.81c.05-.18.11-.35.16-.53Z"/>
    <path class="cls-2" d="M194.79,128.36l-39.48,11.85c-.06.19-.13.38-.19.57l39.5-11.86c.06-.19.11-.37.17-.56Z"/>
    <path class="cls-2" d="M193.39,133.02l-39.6,11.89c-.06.2-.13.39-.19.59l39.62-11.9c.06-.19.11-.39.17-.59Z"/>
    <path class="cls-2" d="M192.03,137.67l-39.71,11.92c-.06.21-.13.41-.19.62l39.72-11.93c.06-.21.12-.41.18-.62Z"/>
    <path class="cls-2" d="M190.69,142.31l-39.77,11.94c-.06.22-.13.43-.19.65l39.78-11.95c.06-.21.12-.43.18-.64Z"/>
    <path class="cls-2" d="M149.38,159.57l39.83-11.96c.06-.22.12-.45.19-.67l-39.83,11.96c-.06.22-.13.45-.19.67Z"/>
    <path class="cls-2" d="M148.09,164.22l39.84-11.96c.06-.23.12-.47.18-.7l-39.83,11.96c-.06.23-.13.47-.19.7Z"/>
    <path class="cls-2" d="M146.85,168.86l39.85-11.97c.06-.24.13-.48.19-.73l-39.85,11.97c-.06.24-.13.48-.19.73Z"/>
    <path class="cls-2" d="M145.66,173.49l39.82-11.96c.06-.25.13-.5.2-.75l-39.82,11.96c-.06.25-.13.5-.19.75Z"/>
    <path class="cls-2" d="M144.52,178.1l39.8-11.95c.07-.26.13-.52.2-.78l-39.8,11.95c-.06.26-.13.52-.19.78Z"/>
    <path class="cls-2" d="M183.36,169.95l-39.75,11.94c-.06.27-.13.54-.19.8l39.73-11.93c.07-.27.14-.54.2-.81Z"/>
    <path class="cls-2" d="M182.24,174.53l-39.7,11.92c-.06.28-.12.55-.19.83l39.68-11.92c.07-.28.13-.56.2-.83Z"/>
    <path class="cls-2" d="M181.15,179.1l-39.62,11.9c-.06.28-.12.57-.18.86l39.6-11.89c.07-.29.14-.57.21-.86Z"/>
    <path class="cls-2" d="M180.09,183.66l-39.54,11.87c-.06.29-.12.59-.19.88l39.52-11.87c.07-.3.13-.59.2-.89Z"/>
    <path class="cls-2" d="M179.06,188.21l-39.44,11.84c-.06.3-.13.61-.19.91l39.42-11.84c.07-.31.14-.61.21-.92Z"/>
    <path class="cls-2" d="M178.05,192.75l-39.33,11.81c-.06.31-.12.62-.18.94l39.31-11.81c.07-.31.13-.63.2-.94Z"/>
    <path class="cls-2" d="M177.08,197.28l-39.23,11.78c-.06.32-.12.64-.18.96l39.2-11.77c.07-.32.14-.65.21-.97Z"/>
    <path class="cls-2" d="M176.12,201.81l-39.09,11.74c-.06.33-.12.66-.18.99l39.07-11.73c.07-.33.13-.66.2-.99Z"/>
    <path class="cls-2" d="M175.21,206.32l-38.98,11.71c-.06.34-.12.67-.17,1.01l38.95-11.7c.07-.34.14-.68.2-1.02Z"/>
    <path class="cls-2" d="M135.3,223.53l38.8-11.65c.07-.35.14-.7.21-1.05l-38.84,11.66c-.06.35-.11.69-.17,1.04Z"/>
    <path class="cls-2" d="M134.58,228.02l38.68-11.61c.07-.36.13-.72.2-1.07l-38.71,11.63c-.06.35-.11.71-.16,1.06Z"/>
    <path class="cls-2" d="M133.89,232.49l38.52-11.57c.07-.37.14-.73.21-1.1l-38.56,11.58c-.06.36-.11.73-.17,1.09Z"/>
    <path class="cls-2" d="M133.4,235.84c-.05.37-.11.74-.16,1.11l38.38-11.52c.07-.37.13-.75.2-1.12l-38.41,11.53Z"/>
    <path class="cls-2" d="M171.03,228.78l-38.26,11.49c-.05.38-.11.76-.16,1.14l38.21-11.47c.07-.38.14-.77.2-1.15Z"/>
    <path class="cls-2" d="M170.27,233.25l-38.09,11.44c-.05.39-.1.78-.15,1.16l38.05-11.43c.06-.39.12-.78.19-1.17Z"/>
    <path class="cls-2" d="M169.55,237.71l-37.94,11.39c-.05.4-.1.79-.15,1.19l37.89-11.38c.06-.4.13-.8.19-1.2Z"/>
    <path class="cls-2" d="M168.84,242.16l-37.76,11.34c-.05.41-.09.81-.14,1.21l37.71-11.32c.06-.41.12-.82.18-1.23Z"/>
    <path class="cls-2" d="M168.18,246.6l-37.6,11.29c-.05.41-.09.82-.13,1.24l37.54-11.27c.06-.42.12-.84.19-1.25Z"/>
    <path class="cls-2" d="M167.53,251.03l-37.41,11.23c-.04.42-.08.84-.13,1.26l37.35-11.22c.06-.43.12-.85.18-1.28Z"/>
    <path class="cls-2" d="M166.93,255.45l-37.24,11.18c-.04.43-.08.86-.12,1.29l37.18-11.17c.06-.43.12-.87.17-1.3Z"/>
    <path class="cls-2" d="M166.34,259.87l-37.04,11.12c-.04.44-.08.88-.12,1.31l36.98-11.1c.06-.44.12-.89.18-1.33Z"/>
    <path class="cls-2" d="M128.93,275.35c-.04.44-.07.89-.11,1.34l26.64-8c1.27-.79,2.52-1.61,3.76-2.43l-30.28,9.09Z"/>
    <path class="cls-2" d="M128.6,279.68c-.03.45-.07.91-.1,1.36l8.87-2.66c2.46-1.1,4.91-2.28,7.32-3.53l-16.09,4.83Z"/>
    <path class="cls-2" d="M256.38,89.04c.04-.14.09-.28.13-.42l-12.81,3.85c-1.52.56-3.04,1.14-4.56,1.74l17.24-5.18Z"/>
    <path class="cls-2" d="M217.95,104.84l36.94-11.09c.05-.15.09-.3.14-.45l-35.8,10.75c-.43.26-.86.52-1.29.79Z"/>
    <path class="cls-2" d="M214.4,110.18l39.03-11.72c.05-.16.1-.32.15-.47l-39,11.71c-.06.16-.12.32-.17.48Z"/>
    <path class="cls-2" d="M212.75,114.94l39.23-11.78c.05-.17.1-.34.15-.5l-39.21,11.77c-.06.17-.12.34-.18.51Z"/>
    <path class="cls-2" d="M211.18,119.68l39.37-11.82c.05-.18.11-.35.16-.53l-39.35,11.82c-.06.18-.12.35-.18.54Z"/>
    <path class="cls-2" d="M209.69,124.39l39.45-11.84c.06-.19.11-.37.17-.56l-39.43,11.84c-.06.19-.12.37-.18.56Z"/>
    <path class="cls-2" d="M208.26,129.09l39.47-11.85c.06-.2.12-.39.18-.59l-39.47,11.85c-.06.2-.12.39-.18.59Z"/>
    <path class="cls-2" d="M206.89,133.77l39.47-11.85c.06-.21.12-.41.18-.62l-39.47,11.85c-.06.21-.12.41-.18.62Z"/>
    <path class="cls-2" d="M205.57,138.43l39.43-11.84c.06-.21.12-.43.18-.65l-39.43,11.84c-.06.22-.12.43-.18.64Z"/>
    <path class="cls-2" d="M204.3,143.08l39.37-11.82c.06-.22.13-.45.19-.67l-39.38,11.83c-.06.22-.12.45-.18.67Z"/>
    <path class="cls-2" d="M203.07,147.71l39.29-11.8c.06-.23.13-.47.19-.7l-39.3,11.8c-.06.23-.12.46-.18.7Z"/>
    <path class="cls-2" d="M201.89,152.34l39.19-11.77c.07-.24.13-.48.2-.73l-39.21,11.77c-.06.24-.12.48-.18.72Z"/>
    <path class="cls-2" d="M200.74,156.95l39.09-11.74c.07-.25.13-.5.2-.76l-39.11,11.74c-.06.25-.12.5-.18.75Z"/>
    <path class="cls-2" d="M199.62,161.55l38.97-11.7c.07-.26.13-.52.2-.78l-38.99,11.71c-.06.26-.12.52-.18.78Z"/>
    <path class="cls-2" d="M198.54,166.14l38.87-11.67c.07-.27.14-.54.21-.81l-38.89,11.68c-.06.27-.12.54-.18.8Z"/>
    <path class="cls-2" d="M197.49,170.72l38.76-11.64c.07-.28.14-.56.2-.83l-38.77,11.64c-.06.28-.13.55-.19.83Z"/>
    <path class="cls-2" d="M196.47,175.3l38.65-11.61c.07-.29.14-.58.21-.86l-38.67,11.61c-.06.29-.13.57-.19.86Z"/>
    <path class="cls-2" d="M195.48,179.86l38.56-11.58c.07-.3.14-.59.21-.89l-38.57,11.58c-.06.29-.13.59-.19.88Z"/>
    <path class="cls-2" d="M194.51,184.42l38.46-11.55c.07-.31.14-.61.21-.92l-38.48,11.55c-.06.3-.13.61-.19.91Z"/>
    <path class="cls-2" d="M193.57,188.97l38.4-11.53c.07-.31.14-.63.21-.94l-38.42,11.54c-.06.31-.13.63-.19.94Z"/>
    <path class="cls-2" d="M192.65,193.51l38.35-11.52c.07-.32.13-.64.2-.97l-38.35,11.52c-.06.32-.13.64-.19.96Z"/>
    <path class="cls-2" d="M191.75,198.05l38.33-11.51c.07-.33.14-.66.2-.99l-38.34,11.51c-.06.33-.13.66-.19.99Z"/>
    <path class="cls-2" d="M190.88,202.58l38.34-11.51c.06-.34.12-.68.19-1.02l-38.33,11.51c-.07.34-.13.68-.2,1.02Z"/>
    <path class="cls-2" d="M190.02,207.1l38.35-11.52c.06-.35.13-.7.19-1.04l-38.35,11.52c-.07.35-.13.7-.2,1.05Z"/>
    <path class="cls-2" d="M189.19,211.62l38.44-11.54c.06-.35.12-.71.18-1.07l-38.42,11.54c-.07.36-.13.71-.2,1.07Z"/>
    <path class="cls-2" d="M226.92,204.56c.06-.36.1-.72.16-1.09l-38.5,11.56c-.07.37-.13.73-.2,1.1l38.55-11.57Z"/>
    <path class="cls-2" d="M269.27,191.1c-.78.48-1.59.97-2.4,1.46l2.35-.7c.02-.25.04-.5.06-.76Z"/>
    <path class="cls-2" d="M226.44,207.9l-38.67,11.61c-.07.38-.13.75-.2,1.12l38.7-11.62c.05-.37.11-.74.16-1.11Z"/>
    <path class="cls-2" d="M249.16,202.15l19.67-5.91c.04-.37.08-.73.11-1.1l-14.4,4.33c-1.77.92-3.57,1.81-5.38,2.68Z"/>
    <path class="cls-2" d="M186.79,225.14l81.49-24.47c.05-.38.1-.76.15-1.14l-81.44,24.46c-.07.39-.13.77-.2,1.15Z"/>
    <path class="cls-2" d="M186.03,229.64l81.55-24.49c.07-.39.14-.79.2-1.18l-81.55,24.49c-.07.39-.13.79-.2,1.18Z"/>
    <path class="cls-2" d="M185.28,234.13l81.46-24.46c.08-.4.15-.81.23-1.22l-81.49,24.47c-.07.4-.13.81-.2,1.21Z"/>
    <path class="cls-2" d="M184.55,238.61l81.23-24.39c.09-.42.19-.84.28-1.26l-81.31,24.42c-.07.41-.13.82-.2,1.23Z"/>
    <path class="cls-2" d="M183.83,243.09l80.88-24.29c.1-.43.21-.86.31-1.29l-80.99,24.32c-.07.42-.13.84-.2,1.26Z"/>
    <path class="cls-2" d="M183.13,247.57l80.42-24.15c.12-.44.23-.88.34-1.33l-80.56,24.19c-.07.43-.13.86-.2,1.29Z"/>
    <path class="cls-2" d="M182.45,252.05l79.87-23.98c.12-.45.25-.91.37-1.36l-80.04,24.03c-.07.44-.13.87-.2,1.31Z"/>
    <path class="cls-2" d="M181.78,256.51l79.24-23.79c.13-.47.26-.93.4-1.4l-79.44,23.85c-.07.45-.13.89-.2,1.34Z"/>
    <path class="cls-2" d="M181.32,259.62c-.07.46-.13.91-.2,1.36l78.55-23.59c.14-.47.28-.95.41-1.43l-78.77,23.65Z"/>
    <path class="cls-2" d="M258.67,240.8c.02-.06.04-.13.06-.19l-78.05,23.44c-.07.47-.13.93-.2,1.39l75.11-22.55c1.06-.7,2.09-1.4,3.09-2.08Z"/>
    <path class="cls-2" d="M246.71,248.46l-66.67,20.02c-.03.23-.07.48-.1.71.34.13.69.25,1.04.37l61-18.32c1.61-.92,3.19-1.85,4.74-2.78Z"/>
    <path class="cls-2" d="M186.97,270.64c1.6.1,3.23.06,4.84-.07l29.75-8.93c2.7-1.2,5.41-2.48,8.1-3.82l-42.69,12.82Z"/>
    <path class="cls-2" d="M333.67,69.69l-9.15,2.75c-1.07.42-2.13.88-3.2,1.36l15.41-4.63c-1.03.14-2.05.31-3.06.51Z"/>
    <path class="cls-2" d="M344.09,70.8l-36.08,10.83c-.31.23-.61.47-.92.7l36.81-11.05c.06-.16.13-.32.19-.49Z"/>
    <path class="cls-2" d="M342.24,75.6l-40.8,12.25c-.06.17-.13.34-.19.51l40.79-12.25c.06-.17.13-.34.19-.51Z"/>
    <path class="cls-2" d="M340.47,80.37l-40.78,12.25c-.06.18-.13.36-.19.54l40.77-12.24c.07-.18.13-.36.2-.54Z"/>
    <path class="cls-2" d="M338.76,85.13l-40.73,12.23c-.06.19-.13.38-.19.57l40.72-12.23c.07-.19.13-.38.2-.57Z"/>
    <path class="cls-2" d="M337.1,89.87l-40.65,12.21c-.06.2-.13.4-.19.59l40.64-12.2c.07-.2.14-.4.21-.6Z"/>
    <path class="cls-2" d="M335.52,94.58l-40.6,12.19c-.07.21-.13.41-.19.62l40.58-12.19c.07-.21.14-.42.21-.62Z"/>
    <path class="cls-2" d="M333.98,99.28l-40.51,12.16c-.07.22-.13.43-.2.65l40.5-12.16c.07-.22.13-.43.2-.65Z"/>
    <path class="cls-2" d="M332.51,103.96l-40.44,12.14c-.07.22-.13.45-.2.67l40.42-12.14c.07-.23.14-.45.21-.68Z"/>
    <path class="cls-2" d="M331.1,108.63l-40.36,12.12c-.07.23-.13.47-.2.7l40.35-12.12c.07-.23.14-.47.21-.7Z"/>
    <path class="cls-2" d="M329.72,113.28l-40.28,12.09c-.07.24-.13.48-.2.73l40.26-12.09c.07-.24.14-.49.21-.73Z"/>
    <path class="cls-2" d="M328.43,117.91l-40.22,12.08c-.07.25-.13.5-.2.75l40.21-12.07c.07-.25.14-.51.21-.76Z"/>
    <path class="cls-2" d="M327.17,122.53l-40.15,12.06c-.07.26-.13.52-.2.78l40.15-12.06c.07-.26.13-.52.2-.78Z"/>
    <path class="cls-2" d="M325.97,127.13l-40.1,12.04c-.07.27-.14.54-.2.81l40.09-12.04c.07-.27.14-.54.21-.81Z"/>
    <path class="cls-2" d="M324.83,131.71l-40.06,12.03c-.07.28-.13.56-.2.83l40.06-12.03c.07-.28.13-.56.2-.83Z"/>
    <path class="cls-2" d="M323.72,136.29l-40.02,12.02c-.07.29-.13.57-.2.86l40.02-12.02c.07-.29.14-.58.21-.86Z"/>
    <path class="cls-2" d="M322.69,140.84l-40.02,12.02c-.07.3-.13.59-.2.89l40.02-12.02c.07-.3.13-.59.2-.89Z"/>
    <path class="cls-2" d="M321.68,145.38l-40.01,12.01c-.07.3-.13.61-.2.91l40.02-12.02c.06-.3.12-.61.19-.91Z"/>
    <path class="cls-2" d="M320.76,149.9l-40.05,12.03c-.07.31-.13.63-.19.94l40.05-12.03c.06-.31.13-.63.19-.94Z"/>
    <path class="cls-2" d="M319.87,154.4l-40.08,12.04c-.06.32-.13.64-.19.96l40.1-12.04c.06-.32.12-.64.18-.96Z"/>
    <path class="cls-2" d="M319.04,158.89l-40.14,12.05c-.06.33-.13.66-.19.99l40.15-12.06c.06-.33.12-.66.18-.99Z"/>
    <path class="cls-2" d="M318.26,163.37l-40.23,12.08c-.06.34-.13.68-.19,1.02l40.26-12.09c.06-.34.11-.67.17-1.01Z"/>
    <path class="cls-2" d="M317.53,167.83l-40.32,12.11c-.06.35-.13.7-.19,1.04l40.35-12.12c.05-.35.11-.69.16-1.04Z"/>
    <path class="cls-2" d="M316.72,173.32c.05-.35.1-.71.15-1.06l-40.47,12.15c-.06.36-.13.71-.19,1.07l40.5-12.16Z"/>
    <path class="cls-2" d="M275.45,189.98l40.66-12.21c.05-.36.08-.72.13-1.08l-40.61,12.19c-.06.37-.12.73-.18,1.1Z"/>
    <path class="cls-2" d="M274.7,194.47l40.86-12.27c.04-.37.09-.74.14-1.11l-40.81,12.26c-.06.37-.12.75-.18,1.12Z"/>
    <path class="cls-2" d="M273.99,198.96l41.09-12.34c.04-.38.07-.75.11-1.13l-41.02,12.32c-.06.38-.12.76-.18,1.15Z"/>
    <path class="cls-2" d="M358.85,172.49c-3.51,1.36-7.02,2.74-10.53,4.15l10.44-3.13c.03-.34.07-.68.09-1.01Z"/>
    <path class="cls-2" d="M314.64,191.02c.03-.38.08-.77.12-1.15l-41.28,12.39c-.06.39-.12.78-.18,1.17l41.34-12.41Z"/>
    <path class="cls-2" d="M317.45,190.17l40.9-12.28c.04-.39.08-.77.11-1.15l-34.81,10.45c-2.08.97-4.15,1.97-6.21,2.98Z"/>
    <path class="cls-2" d="M272.64,207.89l85.17-25.58c.05-.4.09-.79.15-1.19l-85.14,25.57c-.06.4-.12.8-.18,1.2Z"/>
    <path class="cls-2" d="M272.01,212.35l85.15-25.57c.06-.41.12-.82.18-1.23l-85.16,25.57c-.06.41-.12.82-.17,1.23Z"/>
    <path class="cls-2" d="M271.4,216.8l85.01-25.53c.07-.42.14-.84.21-1.26l-85.06,25.54c-.06.42-.11.83-.17,1.25Z"/>
    <path class="cls-2" d="M270.82,221.24l84.79-25.46c.08-.43.16-.86.24-1.3l-84.86,25.48c-.06.43-.11.85-.17,1.28Z"/>
    <path class="cls-2" d="M270.26,225.68l84.51-25.38c.08-.44.17-.88.25-1.33l-84.6,25.4c-.05.43-.11.87-.16,1.3Z"/>
    <path class="cls-2" d="M269.73,230.1l84.19-25.28c.09-.45.17-.9.26-1.36l-84.29,25.31c-.05.44-.1.88-.16,1.33Z"/>
    <path class="cls-2" d="M269.22,234.52l83.85-25.18c.08-.46.16-.92.25-1.38l-83.95,25.21c-.05.45-.1.9-.15,1.35Z"/>
    <path class="cls-2" d="M268.74,238.93l82.35-24.73c.46-.44.91-.88,1.34-1.32.03-.15.05-.29.08-.44l-83.62,25.11c-.05.46-.1.92-.15,1.37Z"/>
    <path class="cls-2" d="M268.29,243.34l74.04-22.23c1.15-.77,2.26-1.56,3.33-2.36l-77.22,23.19c-.05.47-.1.93-.14,1.4Z"/>
    <path class="cls-2" d="M268,246.31c-.04.43-.09.86-.13,1.29.33-.05.66-.11.99-.17l56.4-16.94c2.44-1.13,4.83-2.31,7.15-3.53l-64.42,19.34Z"/>
    <path class="cls-2" d="M473.79,44.58l-29.08,8.73c-.8.4-1.59.81-2.38,1.23l31.07-9.33c.13-.21.26-.42.39-.63Z"/>
    <path class="cls-2" d="M470.63,49.77l-41.99,12.61c-.52.33-1.04.67-1.55,1l43.15-12.96c.13-.22.26-.43.39-.65Z"/>
    <path class="cls-2" d="M423.17,68.82l44.01-13.22c.13-.23.26-.45.4-.68l-44.05,13.23c-.12.22-.24.45-.36.67Z"/>
    <path class="cls-2" d="M387.92,58.07l.05-.02s0-.01,0-.02c-.02.01-.03.02-.05.03Z"/>
    <path class="cls-2" d="M374.92,66.24l13.79-4.14c-.03-.14-.06-.29-.09-.43l-12.36,3.71c-.45.29-.89.57-1.34.86Z"/>
    <path class="cls-2" d="M363.94,73.81l25.71-7.72c-.04-.15-.07-.3-.11-.45l-24.49,7.35c-.37.27-.74.54-1.12.82Z"/>
    <path class="cls-2" d="M355.2,80.7l35.44-10.64c-.04-.16-.09-.31-.13-.47l-34.38,10.32c-.31.26-.63.53-.94.79Z"/>
    <path class="cls-2" d="M354.64,85.13l37.05-11.13c-.05-.16-.09-.33-.13-.49l-37.04,11.12c.04.17.08.33.12.5Z"/>
    <path class="cls-2" d="M355.64,89.1l37.17-11.16c-.05-.17-.1-.34-.15-.52l-37.15,11.16c.04.17.09.35.14.52Z"/>
    <path class="cls-2" d="M356.69,93.05l37.27-11.19c-.05-.18-.11-.36-.17-.54l-37.25,11.19c.05.18.1.36.15.54Z"/>
    <path class="cls-2" d="M420.41,73.92l43.81-13.16c.13-.24.27-.47.4-.71l-43.83,13.16c-.13.23-.25.47-.38.7Z"/>
    <path class="cls-2" d="M357.8,96.99l37.37-11.22c-.06-.19-.11-.38-.17-.56l-37.36,11.22c.05.19.11.38.17.56Z"/>
    <path class="cls-2" d="M417.66,79.01l43.68-13.12c.14-.25.27-.49.41-.74l-43.69,13.12c-.13.24-.26.49-.4.73Z"/>
    <path class="cls-2" d="M358.95,100.91l37.48-11.25c-.06-.19-.13-.39-.19-.58l-37.46,11.25c.06.2.11.39.17.59Z"/>
    <path class="cls-2" d="M414.93,84.1l43.57-13.08c.14-.26.28-.51.42-.77l-43.59,13.09c-.14.25-.27.51-.41.76Z"/>
    <path class="cls-2" d="M360.16,104.81l37.56-11.28c-.07-.2-.14-.4-.21-.61l-37.54,11.27c.06.2.13.41.19.61Z"/>
    <path class="cls-2" d="M412.27,89.16l43.48-13.05c.14-.27.29-.53.43-.8l-43.5,13.06c-.14.26-.28.53-.41.79Z"/>
    <path class="cls-2" d="M409.68,94.21l43.33-13.01c.15-.28.3-.55.44-.83l-43.36,13.02c-.14.27-.28.55-.41.82Z"/>
    <path class="cls-2" d="M361.4,108.7l37.63-11.3c-.07-.21-.14-.42-.22-.63l-37.62,11.3c.07.21.14.42.21.63Z"/>
    <path class="cls-2" d="M407.21,99.22l43.12-12.95c.15-.29.3-.57.45-.86l-43.17,12.96c-.14.28-.27.56-.41.84Z"/>
    <path class="cls-2" d="M362.69,112.58l37.71-11.32c-.08-.22-.15-.43-.23-.65l-37.7,11.32c.07.22.15.44.22.65Z"/>
    <path class="cls-2" d="M404.85,104.19l42.82-12.86c.15-.29.3-.59.46-.89l-42.89,12.88c-.13.29-.26.58-.39.87Z"/>
    <path class="cls-2" d="M364.01,116.46l37.78-11.34c-.08-.22-.16-.45-.25-.67l-37.77,11.34c.08.23.16.45.24.68Z"/>
    <path class="cls-2" d="M402.96,108.33s-.02-.05-.03-.07l-37.83,11.36c.08.23.16.47.25.7l79.7-23.93c.16-.31.32-.61.47-.92l-42.53,12.77s-.03.06-.04.09Z"/>
    <path class="cls-2" d="M366.74,124.17l75.75-22.75c.16-.31.32-.63.48-.95l-76.49,22.97c.09.24.17.48.26.72Z"/>
    <path class="cls-2" d="M368.15,128.01l71.8-21.56c.16-.32.32-.65.48-.97l-72.56,21.79c.09.25.18.5.27.74Z"/>
    <path class="cls-2" d="M369.58,131.85l67.87-20.38c.17-.34.33-.67.5-1l-68.66,20.62c.1.26.19.51.29.77Z"/>
    <path class="cls-2" d="M371.03,135.68l63.95-19.2c.17-.34.34-.69.51-1.03l-64.75,19.44c.1.26.2.53.3.79Z"/>
    <path class="cls-2" d="M372.5,139.51l60.03-18.03c.17-.35.35-.71.52-1.06l-60.86,18.28c.1.27.21.54.31.81Z"/>
    <path class="cls-2" d="M373.98,143.33l56.14-16.86c.18-.36.35-.73.53-1.09l-56.99,17.11c.11.28.22.56.32.84Z"/>
    <path class="cls-2" d="M375.47,147.15l52.27-15.69c.18-.37.35-.75.53-1.12l-53.13,15.95c.11.29.22.57.34.86Z"/>
    <path class="cls-2" d="M376.98,150.96l48.41-14.54c.18-.38.36-.77.54-1.15l-49.3,14.8c.12.29.23.59.35.88Z"/>
    <path class="cls-2" d="M378.48,154.78l44.58-13.39c.18-.39.37-.78.55-1.18l-45.49,13.66c.12.3.24.6.36.9Z"/>
    <path class="cls-2" d="M378.72,158.97l42.05-12.63c.19-.4.37-.8.55-1.21l-42.13,12.65c-.16.39-.31.79-.47,1.18Z"/>
    <path class="cls-2" d="M376.8,163.82l41.7-12.52c.19-.41.38-.82.57-1.23l-41.79,12.55c-.16.4-.32.81-.48,1.21Z"/>
    <path class="cls-2" d="M374.88,168.66l41.38-12.43c.19-.42.38-.84.57-1.26l-41.46,12.45c-.16.41-.33.83-.49,1.24Z"/>
    <path class="cls-2" d="M372.95,173.5l41.08-12.34c.19-.43.39-.86.58-1.29l-41.16,12.36c-.17.42-.34.85-.5,1.27Z"/>
    <path class="cls-2" d="M371.04,178.35l40.81-12.25c.19-.44.39-.88.59-1.32l-40.88,12.28c-.17.43-.34.87-.51,1.3Z"/>
    <path class="cls-2" d="M369.13,183.19l40.55-12.18c.2-.45.39-.9.59-1.35l-40.61,12.2c-.17.44-.35.89-.52,1.33Z"/>
    <path class="cls-2" d="M367.23,188.02l40.3-12.1c.2-.46.4-.92.6-1.38l-40.38,12.12c-.18.45-.35.9-.53,1.36Z"/>
    <path class="cls-2" d="M365.36,192.86l40.07-12.03c.2-.47.4-.94.6-1.41l-40.13,12.05c-.18.46-.36.92-.54,1.39Z"/>
    <path class="cls-2" d="M363.5,197.68l39.82-11.96c.2-.48.41-.96.62-1.44l-39.9,11.98c-.18.47-.36.94-.54,1.41Z"/>
    <path class="cls-2" d="M361.66,202.5l39.59-11.89c.21-.49.41-.98.62-1.46l-39.66,11.91c-.18.48-.37.96-.55,1.44Z"/>
    <path class="cls-2" d="M359.85,207.31l39.34-11.81c.21-.5.41-.99.62-1.49l-39.42,11.84c-.18.49-.36.98-.54,1.47Z"/>
    <path class="cls-2" d="M358.08,212.11l39.09-11.74c.21-.51.42-1.01.63-1.52l-39.17,11.76c-.18.5-.37,1-.55,1.5Z"/>
    <path class="cls-2" d="M356.34,216.9l38.83-11.66c.21-.52.42-1.03.63-1.55l-38.92,11.69c-.18.51-.36,1.01-.54,1.52Z"/>
    <path class="cls-2" d="M354.64,221.67l38.53-11.57c.21-.53.43-1.05.65-1.58l-38.63,11.6c-.18.52-.37,1.03-.55,1.55Z"/>
    <path class="cls-2" d="M352.98,226.44l38.23-11.48c.22-.53.43-1.07.65-1.6l-38.35,11.52c-.18.52-.35,1.05-.53,1.57Z"/>
    <path class="cls-2" d="M351.37,231.19l35.8-10.75c.77-.38,1.53-.76,2.3-1.14.15-.37.3-.75.45-1.12l-38,11.41c-.18.53-.36,1.07-.54,1.6Z"/>
    <path class="cls-2" d="M350.29,234.36l1.15-.26c5.28-1.21,10.56-2.89,15.76-4.85l-16.9,5.07s-.01.03-.02.05Z"/>
    <path class="cls-2" d="M417.7,219.81c-1.49-.19-3.04-.21-4.64-.1l-19.34,5.81c-2.32,1.09-4.66,2.29-7,3.59l30.98-9.3Z"/>
    <path class="cls-2" d="M373.83,237.25l50.3-15.11c-.54-.38-1.11-.72-1.71-1l-44.6,13.39c-1.34.89-2.68,1.79-3.99,2.72Z"/>
    <path class="cls-2" d="M364.44,244.33l62.85-18.87c-.29-.45-.6-.87-.93-1.26l-58.78,17.65c-1.07.82-2.12,1.65-3.15,2.49Z"/>
    <path class="cls-2" d="M356.85,250.88l72.15-21.66c-.15-.49-.32-.97-.5-1.42l-69.03,20.73c-.9.79-1.77,1.57-2.62,2.36Z"/>
    <path class="cls-2" d="M350.85,256.74c-.02.07-.04.15-.06.22l78.99-23.72c-.05-.51-.13-1.02-.22-1.53l-76.79,23.06c-.66.66-1.31,1.32-1.93,1.97Z"/>
    <path class="cls-2" d="M349.64,261.58l80.33-24.12c0-.55,0-1.09,0-1.62l-79.88,23.99c-.15.59-.3,1.17-.44,1.76Z"/>
    <path class="cls-2" d="M348.52,266.18l81.29-24.41c.04-.56.09-1.12.11-1.68l-80.97,24.31c-.14.59-.28,1.18-.42,1.78Z"/>
    <path class="cls-2" d="M396.96,255.08c.06.26.09.52.12.79l32.19-9.67c.1-.58.18-1.17.26-1.75l-32.84,9.86c.11.23.2.48.27.77Z"/>
    <path class="cls-2" d="M379.44,261.16c1.1-.89,2.3-1.83,3.55-2.74l-35.14,10.55c-.14.6-.28,1.2-.42,1.8l32.01-9.61Z"/>
    <path class="cls-2" d="M396.45,260.32l31.89-9.58c.15-.61.28-1.22.41-1.82l-31.81,9.55c-.11.6-.28,1.22-.49,1.85Z"/>
    <path class="cls-2" d="M346.4,275.35l29.53-8.87.46-1.84-29.57,8.88c-.14.61-.28,1.22-.41,1.82Z"/>
    <path class="cls-2" d="M394.08,265.3l32.93-9.89c.21-.63.39-1.27.58-1.9l-32.37,9.72c-.34.68-.73,1.37-1.15,2.07Z"/>
    <path class="cls-2" d="M345.41,279.91l29.38-8.82.46-1.87-29.44,8.84c-.13.62-.26,1.23-.39,1.85Z"/>
    <path class="cls-2" d="M344.45,284.47l29.19-8.77.47-1.9-29.28,8.79c-.13.62-.26,1.25-.39,1.87Z"/>
    <path class="cls-2" d="M390.36,270.68l34.92-10.49c.26-.66.52-1.32.76-1.98l-33.99,10.21c-.53.75-1.1,1.51-1.69,2.26Z"/>
    <path class="cls-2" d="M343.53,289.01l28.97-8.7.48-1.92-29.07,8.73c-.13.63-.26,1.26-.38,1.9Z"/>
    <path class="cls-2" d="M385.52,276.4l37.61-11.29c.33-.69.64-1.38.95-2.07l-36.41,10.93c-.7.82-1.42,1.63-2.15,2.43Z"/>
    <path class="cls-2" d="M379.68,282.43l40.88-12.28c.39-.71.77-1.43,1.14-2.15l-39.43,11.84c-.87.89-1.74,1.75-2.59,2.59Z"/>
    <path class="cls-2" d="M342.65,293.54l28.71-8.62.48-1.95-28.83,8.66c-.12.64-.25,1.28-.37,1.92Z"/>
    <path class="cls-2" d="M342.16,296.12c-.12.65-.24,1.29-.36,1.94l28.42-8.53.49-1.98-28.55,8.57Z"/>
    <path class="cls-2" d="M372.85,288.74l44.69-13.42c.46-.74.91-1.49,1.35-2.24l-42.97,12.9c-1.1,1.01-2.14,1.94-3.07,2.76Z"/>
    <path class="cls-2" d="M340.99,302.58l73.05-21.94c.54-.77,1.07-1.55,1.59-2.34l-74.28,22.3c-.12.66-.24,1.31-.36,1.97Z"/>
    <path class="cls-2" d="M340.21,307.08l69.82-20.97c.62-.8,1.23-1.62,1.84-2.44l-71.32,21.42c-.11.66-.23,1.33-.34,1.99Z"/>
    <path class="cls-2" d="M339.45,311.57l65.96-19.81c.72-.84,1.44-1.69,2.15-2.56l-67.78,20.35c-.11.67-.22,1.34-.33,2.01Z"/>
    <path class="cls-2" d="M338.73,316.06l61.37-18.43c.84-.88,1.68-1.78,2.52-2.7l-63.56,19.09c-.11.68-.22,1.36-.33,2.04Z"/>
    <path class="cls-2" d="M338.04,320.53l55.83-16.76c1-.92,2-1.89,3.01-2.87l-58.52,17.57c-.11.69-.21,1.37-.32,2.06Z"/>
    <path class="cls-2" d="M337.37,325l51.76-15.54-.71-.92c.52-.43,1.05-.88,1.58-1.33l-52.33,15.71c-.1.69-.2,1.39-.31,2.08Z"/>
    <path class="cls-2" d="M336.72,329.46l26.9-8.08.02-.12.07.09,28.09-8.44-1.26-1.64-53.51,16.07c-.1.7-.21,1.41-.3,2.11Z"/>
    <path class="cls-2" d="M362.83,325.89l.38-2.16-26.81,8.05c-.1.71-.19,1.42-.29,2.14l26.73-8.03Z"/>
    <polygon class="cls-2" points="366.31 324.84 394.47 316.39 393.19 314.72 365.06 323.17 366.31 324.84"/>
    <path class="cls-2" d="M335.51,338.36l26.54-7.97.38-2.19-26.63,8c-.1.72-.19,1.44-.28,2.16Z"/>
    <polygon class="cls-2" points="368.92 328.33 397.14 319.85 395.84 318.17 367.65 326.63 368.92 328.33"/>
    <path class="cls-2" d="M334.94,342.8l26.32-7.9.39-2.22-26.43,7.94c-.09.73-.19,1.46-.28,2.18Z"/>
    <polygon class="cls-2" points="371.52 331.81 399.81 323.32 398.49 321.61 370.24 330.1 371.52 331.81"/>
    <polygon class="cls-2" points="374.13 335.29 402.47 326.78 401.15 325.06 372.83 333.56 374.13 335.29"/>
    <path class="cls-2" d="M334.39,347.23l26.09-7.83.39-2.24-26.21,7.87c-.09.74-.18,1.47-.27,2.21Z"/>
    <path class="cls-2" d="M333.86,351.65l25.83-7.76.4-2.27-25.97,7.8c-.09.74-.18,1.49-.26,2.23Z"/>
    <polygon class="cls-2" points="376.73 338.78 405.14 330.25 403.8 328.5 375.42 337.02 376.73 338.78"/>
    <polygon class="cls-2" points="379.34 342.26 407.81 333.71 406.45 331.94 378.01 340.48 379.34 342.26"/>
    <path class="cls-2" d="M333.35,356.07l25.56-7.67.4-2.3-25.7,7.72c-.09.75-.17,1.51-.26,2.26Z"/>
    <path class="cls-2" d="M381.94,345.75l27.09-8.14c.29-.43.55-.86.79-1.29l-.72-.94-28.51,8.56,1.35,1.8Z"/>
    <path class="cls-2" d="M358.44,351.11l.09-.53-25.42,7.63c-.08.76-.17,1.52-.25,2.28l12.43-3.73c4.29-2.24,8.7-4.24,13.14-5.65Z"/>
    <path class="cls-2" d="M384.55,349.23l19.13-5.74c1.19-1.04,2.3-2.12,3.28-3.22l-23.77,7.14,1.36,1.82Z"/>
    <path class="cls-2" d="M337.43,361.15l-4.8,1.44c-.05.51-.11,1.02-.17,1.52,1.62-.97,3.28-1.97,4.97-2.96Z"/>
    <path class="cls-2" d="M387.15,352.72l5.77-1.73c2.2-1.24,4.49-2.68,6.69-4.27l-13.84,4.16,1.38,1.84Z"/>
    <path class="cls-2" d="M316.3,244.52c-5.09,1.88-10.14,3.87-15.1,6l46.6-13.99.37-1.58-31.87,9.57Z"/>
    <path class="cls-2" d="M284.59,258.41c-.11.49-.21.97-.32,1.46l62.45-18.75.38-1.6-61.91,18.59c-.2.1-.4.2-.6.31Z"/>
    <path class="cls-2" d="M345.64,245.71l.38-1.63-62.41,18.74c-.12.54-.24,1.08-.36,1.62l62.38-18.73Z"/>
    <path class="cls-2" d="M282.26,269.01l62.3-18.71.39-1.66-62.33,18.72c-.12.55-.24,1.1-.36,1.65Z"/>
    <path class="cls-2" d="M281.26,273.58l62.21-18.68.4-1.69-62.25,18.69c-.12.56-.24,1.12-.37,1.68Z"/>
    <path class="cls-2" d="M280.28,278.14l62.11-18.65.4-1.72-62.15,18.66c-.12.57-.24,1.14-.37,1.71Z"/>
    <path class="cls-2" d="M279.31,282.7l52.45-15.75,9.91-4.36.06-.25-62.05,18.63c-.12.58-.24,1.16-.37,1.73Z"/>
    <path class="cls-2" d="M278.35,287.25l30.9-9.28c.16-.44.31-.88.47-1.32l3.34-1.47-34.34,10.31c-.12.59-.25,1.17-.37,1.76Z"/>
    <path class="cls-2" d="M277.41,291.8l30.23-9.08c.2-.62.4-1.24.61-1.86l-30.47,9.15c-.12.59-.24,1.19-.37,1.79Z"/>
    <path class="cls-2" d="M306.21,287.42c.18-.62.36-1.24.55-1.87l-29.91,8.98c-.12.6-.25,1.21-.37,1.81l29.73-8.93Z"/>
    <path class="cls-2" d="M275.56,300.89l29.42-8.83c.15-.62.31-1.25.48-1.87l-29.53,8.87c-.12.61-.25,1.23-.37,1.84Z"/>
    <path class="cls-2" d="M274.65,305.43l29.32-8.8c.12-.62.25-1.25.39-1.87l-29.34,8.81c-.12.62-.25,1.24-.37,1.87Z"/>
    <path class="cls-2" d="M273.76,309.96l57.6-17.3.37-1.89-57.6,17.3c-.12.63-.25,1.26-.37,1.89Z"/>
    <path class="cls-2" d="M273.25,312.57c-.12.64-.24,1.28-.36,1.92l57.6-17.29.37-1.92-57.61,17.3Z"/>
    <path class="cls-2" d="M272.03,319.02l57.57-17.29.38-1.95-57.58,17.29c-.12.65-.25,1.3-.37,1.95Z"/>
    <path class="cls-2" d="M271.2,323.53l57.53-17.28.38-1.98-57.55,17.28c-.12.66-.24,1.31-.36,1.97Z"/>
    <path class="cls-2" d="M270.37,328.05l57.48-17.26.39-2-57.5,17.27c-.12.67-.25,1.33-.37,2Z"/>
    <path class="cls-2" d="M269.57,332.56l31.23-9.38c.25-.49.51-.96.78-1.38l6.6-2.75-38.26,11.49c-.12.67-.24,1.35-.36,2.02Z"/>
    <path class="cls-2" d="M268.79,337.06l30.15-9.05c.22-.75.47-1.46.72-2.16l-30.52,9.16c-.12.68-.24,1.36-.35,2.05Z"/>
    <path class="cls-2" d="M268.02,341.55l29.75-8.93c.15-.71.31-1.41.48-2.11l-29.88,8.97c-.12.69-.24,1.38-.35,2.07Z"/>
    <path class="cls-2" d="M267.28,346.04l29.67-8.91c.11-.69.22-1.39.35-2.1l-29.68,8.91c-.12.7-.23,1.4-.34,2.09Z"/>
    <path class="cls-2" d="M266.55,350.53l29.82-8.95c.07-.66.15-1.36.25-2.09l-29.72,8.92c-.11.71-.23,1.42-.34,2.12Z"/>
    <path class="cls-2" d="M265.86,355.01l56.09-16.84.27-2.13-56.03,16.83c-.11.72-.22,1.43-.33,2.15Z"/>
    <path class="cls-2" d="M321.39,342.6l.27-2.16-56.16,16.86c-.11.72-.22,1.45-.33,2.17l56.21-16.88Z"/>
    <path class="cls-2" d="M264.52,363.94l56.3-16.91.28-2.18-56.26,16.89c-.11.73-.21,1.46-.32,2.2Z"/>
    <path class="cls-2" d="M320.54,349.26l-56.34,16.92c-.11.74-.21,1.48-.31,2.22l56.37-16.93.28-2.21Z"/>
    <path class="cls-2" d="M263.59,370.6c-.1.75-.21,1.5-.31,2.25l56.41-16.94.29-2.24-56.39,16.93Z"/>
    <path class="cls-2" d="M319.36,358.54l.06-.46-56.43,16.94c-.1.75-.19,1.51-.29,2.27l47.81-14.36c2.98-1.42,5.93-2.87,8.85-4.39Z"/>
    <path class="cls-2" d="M262.43,379.43c-.1.76-.2,1.53-.29,2.29l11.6-3.48c7.7-2.88,15.4-5.88,22.99-9.11l-34.3,10.3Z"/>
    <path class="cls-2" d="M274.83,253.51c-5.38,1.82-10.78,3.65-16.17,5.52l16-4.8.17-.71Z"/>
    <path class="cls-2" d="M223.87,273.74l49.68-14.92.38-1.58-49.51,14.87c-.19.54-.36,1.09-.55,1.63Z"/>
    <path class="cls-2" d="M222.27,278.49l50.18-15.07.39-1.61-50.01,15.02c-.18.55-.38,1.1-.56,1.66Z"/>
    <path class="cls-2" d="M220.81,283.2l50.54-15.18.39-1.63-50.42,15.14c-.17.56-.34,1.11-.51,1.67Z"/>
    <path class="cls-2" d="M270.64,270.95l-50.76,15.24c-.17.56-.32,1.13-.48,1.69l50.84-15.27.4-1.66Z"/>
    <path class="cls-2" d="M269.55,275.52l-50.98,15.31c-.16.57-.33,1.14-.48,1.72l51.05-15.33.41-1.69Z"/>
    <path class="cls-2" d="M248.45,287.7c5.42-3.01,11.39-5.21,17.42-6.59l2.47-.57.11-.44-51.15,15.36c-.15.58-.3,1.15-.45,1.73l31.6-9.49Z"/>
    <path class="cls-2" d="M215.65,301.81l30.12-9.04c.21-.61.41-1.22.63-1.81l-30.29,9.1c-.15.59-.3,1.17-.45,1.76Z"/>
    <path class="cls-2" d="M214.52,306.42l29.8-8.95c.17-.6.34-1.2.52-1.8l-29.88,8.97c-.15.59-.29,1.19-.43,1.78Z"/>
    <path class="cls-2" d="M243.59,300.28l-29.74,8.93c-.14.6-.28,1.2-.42,1.8l29.71-8.92c.14-.6.3-1.21.45-1.81Z"/>
    <path class="cls-2" d="M242.51,304.84l-29.72,8.93c-.14.61-.28,1.22-.42,1.83l29.76-8.93c.13-.61.26-1.21.39-1.82Z"/>
    <path class="cls-2" d="M266.52,301.88l-18.7,5.61c-2.61,1.02-4.92,2.07-6.52,3.11.08-.41.17-.82.25-1.23l-29.8,8.95c-.14.62-.27,1.23-.41,1.85l54.64-16.41.53-1.89Z"/>
    <path class="cls-2" d="M265.22,306.51l-54.47,16.36c-.14.63-.28,1.25-.41,1.88l54.34-16.32.54-1.92Z"/>
    <path class="cls-2" d="M263.91,311.14l-54.15,16.26c-.14.64-.28,1.27-.41,1.91l54.02-16.22.55-1.95Z"/>
    <path class="cls-2" d="M262.61,315.77l-53.83,16.16c-.14.64-.27,1.29-.41,1.93l53.68-16.12.56-1.98Z"/>
    <path class="cls-2" d="M261.31,320.4l-53.48,16.06c-.14.65-.28,1.31-.41,1.96l53.33-16.01.56-2Z"/>
    <path class="cls-2" d="M259.44,327.07l.57-2.03-53.12,15.95c-.14.66-.27,1.32-.4,1.98l52.95-15.9Z"/>
    <path class="cls-2" d="M205.56,347.51l32.09-9.64c.12-.33.23-.66.36-.98,2.73-1.17,5.46-2.33,8.2-3.48l-40.24,12.08c-.14.67-.27,1.34-.41,2.01Z"/>
    <path class="cls-2" d="M204.67,352.05l31.38-9.42c.22-.71.45-1.42.69-2.12l-31.66,9.51c-.13.68-.27,1.36-.4,2.03Z"/>
    <path class="cls-2" d="M204.18,354.52c-.13.69-.27,1.37-.4,2.06l30.91-9.28c.19-.71.39-1.41.59-2.12l-31.1,9.34Z"/>
    <path class="cls-2" d="M234.04,349.79l-30.72,9.23c-.13.7-.26,1.39-.4,2.09l30.59-9.19c.17-.71.35-1.42.53-2.13Z"/>
    <path class="cls-2" d="M232.92,354.37l-30.46,9.15c-.13.7-.26,1.41-.39,2.11l30.34-9.11c.17-.71.33-1.43.5-2.14Z"/>
    <path class="cls-2" d="M259.48,350.63l-57.84,17.37c-.13.71-.26,1.42-.39,2.14l57.68-17.32.56-2.19Z"/>
    <path class="cls-2" d="M258.31,355.22l-57.49,17.26c-.13.72-.25,1.44-.38,2.16l57.31-17.21.56-2.22Z"/>
    <path class="cls-2" d="M257.14,359.82l-57.12,17.15c-.13.73-.26,1.46-.39,2.19l56.93-17.1.57-2.24Z"/>
    <path class="cls-2" d="M255.98,364.41l-56.73,17.04c-.13.74-.25,1.48-.38,2.21l56.53-16.98.58-2.27Z"/>
    <path class="cls-2" d="M198.48,385.91c-.13.75-.26,1.49-.38,2.24l56.12-16.85.59-2.3-56.33,16.91Z"/>
    <path class="cls-2" d="M253.64,373.59l-55.91,16.79c-.13.75-.25,1.51-.37,2.26l55.69-16.72.59-2.33Z"/>
    <path class="cls-2" d="M197,394.84c-.1.62-.2,1.23-.3,1.85l4.65-1.07c.47-.11.95-.23,1.42-.34l25.73-7.73c6.43-2.35,12.76-4.97,18.87-7.84l-50.36,15.12Z"/>
    <path class="cls-2" d="M180.88,277.08c-6.47,1.49-13.12,3.92-19.69,6.95l27.65-8.3c-2.56.22-5.26.74-7.96,1.36Z"/>
    <path class="cls-2" d="M196.4,276.29l-47.94,14.4c-1.61.94-3.2,1.89-4.77,2.87l54.77-16.45c-.65-.33-1.34-.61-2.05-.82Z"/>
    <path class="cls-2" d="M201.17,279.09l-65.3,19.61c-1.2.84-2.39,1.68-3.55,2.53l69.85-20.98c-.32-.42-.65-.81-1-1.16Z"/>
    <path class="cls-2" d="M203.59,282.61l-77.32,23.22c-1,.79-1.97,1.58-2.93,2.36,0,0,0,0,0,0l80.8-24.26c-.17-.46-.36-.91-.55-1.32Z"/>
    <path class="cls-2" d="M204.92,286.55s-.02-.06-.02-.09l-82.36,24.73c-.14.54-.29,1.1-.44,1.65l83.08-24.95c-.07-.45-.15-.9-.25-1.34Z"/>
    <path class="cls-2" d="M205.37,290.55l-84.06,25.24c-.15.56-.29,1.11-.44,1.67l84.45-25.36c.04-.52.05-1.04.05-1.56Z"/>
    <path class="cls-2" d="M154.12,310.19l-33.99,10.21c-.14.56-.29,1.13-.43,1.7l29.01-8.71c1.68-1.06,3.53-2.18,5.41-3.2Z"/>
    <path class="cls-2" d="M165.94,308.2l38.59-11.59c.16-.56.29-1.13.4-1.69l-40.27,12.09c.56.2,1.02.57,1.28,1.18Z"/>
    <path class="cls-2" d="M145.79,316.93l-26.82,8.05c-.14.57-.29,1.15-.43,1.72l26.91-8.08c.11-.57.22-1.13.34-1.7Z"/>
    <path class="cls-2" d="M203.52,299.59l-37.26,11.19c-.03.55-.11,1.11-.24,1.67l36.7-11.02c.28-.61.55-1.22.8-1.83Z"/>
    <path class="cls-2" d="M201.09,304.56l-36.21,10.87c-.34.66-.74,1.32-1.18,1.98l36.18-10.86c.42-.66.83-1.32,1.21-1.99Z"/>
    <path class="cls-2" d="M144.9,321.44l-27.06,8.13c-.14.58-.28,1.16-.43,1.75l27.15-8.15c.11-.57.23-1.15.34-1.72Z"/>
    <path class="cls-2" d="M144,325.94l-27.27,8.19c-.14.59-.28,1.18-.42,1.77l27.33-8.21c.12-.59.24-1.17.36-1.76Z"/>
    <path class="cls-2" d="M197.56,309.86l-36.6,10.99c-.72.79-1.48,1.57-2.28,2.33l37.19-11.17c.58-.71,1.14-1.43,1.69-2.15Z"/>
    <path class="cls-2" d="M154.07,327.16c-1.27,1-2.54,1.94-3.79,2.81l40.35-12.12c.75-.76,1.49-1.54,2.22-2.34l-38.78,11.65Z"/>
    <path class="cls-2" d="M143.07,330.46l-27.41,8.23c-.14.6-.28,1.2-.42,1.8l27.43-8.24c.13-.6.27-1.2.4-1.79Z"/>
    <path class="cls-2" d="M186.81,321.57l-44.44,13.34c-.1.06-.21.12-.31.17,0-.03.01-.05.02-.08l-27.45,8.24c-.14.61-.28,1.21-.41,1.82l69.76-20.95c.92-.8,1.87-1.66,2.84-2.55Z"/>
    <path class="cls-2" d="M185.14,326.31l-71.53,21.48c-.13.62-.27,1.23-.4,1.85l75.38-22.63c-1.12-.35-2.28-.58-3.45-.69Z"/>
    <path class="cls-2" d="M192.06,328.47l-79.43,23.85c-.13.62-.26,1.25-.39,1.87l81.68-24.53c-.6-.43-1.21-.84-1.85-1.2Z"/>
    <path class="cls-2" d="M196.08,331.51l-84.4,25.34c-.13.63-.26,1.26-.39,1.9l86.04-25.84c-.39-.49-.81-.96-1.26-1.4Z"/>
    <path class="cls-2" d="M198.76,334.94l-87.99,26.42c-.13.64-.25,1.28-.38,1.92l89.17-26.78c-.24-.54-.51-1.06-.8-1.57Z"/>
    <path class="cls-2" d="M162.8,351.82l37.93-11.39c-.06-.34-.11-.69-.19-1.03-.05-.23-.13-.46-.2-.68l-39.13,11.75c.64.27,1.19.71,1.59,1.36Z"/>
    <path class="cls-2" d="M138.39,358.41c.83-.65,1.81-1.31,2.88-1.96l-31.37,9.42c-.12.65-.25,1.3-.37,1.95l28.7-8.62c.05-.26.11-.53.16-.79Z"/>
    <path class="cls-2" d="M200.98,342.76l-37.52,11.27c.06.62.04,1.24-.04,1.87l37.54-11.27c.03-.62.04-1.24.02-1.87Z"/>
    <path class="cls-2" d="M137.7,361.76l-28.64,8.6c-.12.66-.24,1.31-.35,1.97l28.6-8.59c.13-.66.26-1.32.39-1.98Z"/>
    <path class="cls-2" d="M136.82,366.27l-28.56,8.58c-.12.66-.23,1.33-.34,1.99l28.52-8.57c.12-.67.25-1.33.37-2Z"/>
    <path class="cls-2" d="M200.7,347.08l-37.98,11.4c-.3.74-.67,1.48-1.11,2.22l38.65-11.6c.17-.67.33-1.34.44-2.02Z"/>
    <path class="cls-2" d="M136.01,370.75l-28.5,8.56c-.11.67-.22,1.34-.32,2.01l28.49-8.56c.11-.67.21-1.34.33-2.01Z"/>
    <path class="cls-2" d="M199.46,351.69l-39.96,12c-.71.88-1.49,1.75-2.33,2.61l41.41-12.43c.32-.72.61-1.44.88-2.18Z"/>
    <path class="cls-2" d="M135.3,375.2l-28.5,8.56c-.1.68-.21,1.36-.31,2.03l28.52-8.57c.09-.67.19-1.35.29-2.03Z"/>
    <path class="cls-2" d="M197.26,356.6l-43.73,13.13c-1.22,1.06-2.49,2.08-3.78,3.08l46.19-13.87c.46-.76.9-1.54,1.32-2.34Z"/>
    <path class="cls-2" d="M134.71,379.62l-28.57,8.58c-.1.69-.2,1.37-.29,2.06l28.65-8.6c.07-.68.13-1.35.21-2.03Z"/>
    <path class="cls-2" d="M194.13,361.78l-49.88,14.98c-2.05,1.39-4.02,2.64-5.75,3.7l53.9-16.18c.45-.63.91-1.26,1.34-1.9.13-.19.26-.39.39-.59Z"/>
    <path class="cls-2" d="M190.2,367.2l-84.66,25.42c-.09.69-.18,1.38-.26,2.07l82.77-24.86c.74-.87,1.45-1.75,2.15-2.64Z"/>
    <path class="cls-2" d="M185.34,372.9l-80.35,24.13c-.08.7-.16,1.39-.23,2.09l77.86-23.38c.93-.94,1.84-1.88,2.72-2.84Z"/>
    <path class="cls-2" d="M179.29,378.95l-74.78,22.46c-.07.71-.14,1.41-.21,2.11l71.57-21.49c1.17-1.01,2.31-2.04,3.43-3.08Z"/>
    <path class="cls-2" d="M171.69,385.48l-67.6,20.3c-.06.71-.13,1.42-.18,2.13l63.32-19.01c1.51-1.11,3-2.25,4.46-3.41Z"/>
    <path class="cls-2" d="M161.89,392.66l-58.15,17.46c-.05.72-.09,1.43-.14,2.14l52.23-15.68c2.05-1.27,4.07-2.58,6.05-3.92Z"/>
    <path class="cls-2" d="M148.44,400.94l-44.96,13.5c-.04.73-.06,1.44-.09,2.15l35.87-10.77c3.08-1.55,6.15-3.18,9.18-4.88Z"/>
    <path class="cls-2" d="M126.64,411.72l-23.32,7c-.02.63-.04,1.26-.05,1.88,7.44-2.43,15.36-5.4,23.36-8.88Z"/>
  </g>
  <path class="cls-3" d="M18.54,310.6c.68-13.68,2.87-27.58,4.99-41.07l.63-4.04c4.55-28.96,11.26-60.45,21.1-99,19.17-14.23,40.85-24.83,59.69-29.16,6.11-1.4,11.21-2.09,15.59-2.09,12.98,0,15.85,5.96,16.88,10.44,4.94,21.53-18.02,44.38-38.59,61.88l-8.32,7.08,10.92-.24c.23,0,.47,0,.7,0,8.96,0,19.4,3.77,21.84,14.36,1.6,6.95-.84,14.01-7.67,22.22-19.24,23.31-64.68,48.76-97.77,59.61ZM75.68,231.69c-2.55,0-4.77.42-5.87.68-4.16.95-8.24,2.58-12.85,5.13l-1.36.75-.47,1.48c-2.88,9.08-4.06,19.23-4.84,27.96l-.62,7,6.26-3.19c3.55-1.81,34.62-18.09,31.32-32.47-.51-2.2-2.65-7.33-11.57-7.33ZM90.84,166.35c-1.62,0-3.18.31-4.35.58-4.55,1.04-9.64,3.12-15.58,6.35l-1.5.81-.41,1.65c-2.37,9.45-5.09,19.69-8.32,31.32l-2.55,9.19,8.25-4.79c5.39-3.13,35.17-26.21,32.08-39.66-.78-3.41-3.64-5.45-7.63-5.45Z"/>
  <path class="cls-2" d="M21.44,303.67c.92-11.62,2.77-23.41,4.57-34.87l.64-4.06c4.48-28.53,11.06-59.47,20.69-97.3,18.46-13.5,39.21-23.56,57.14-27.68,5.82-1.34,10.64-1.99,14.72-1.99,11.39,0,12.54,5.01,13.09,7.42,4.48,19.49-17.59,41.26-37.32,58.05l-16.64,14.16,21.85-.47h.62c7.47,0,16.13,2.97,18.05,11.33,1.3,5.67-.88,11.66-6.87,18.87-18.02,21.83-58.9,45.1-90.53,56.51ZM74.33,226.46c-2.93,0-5.48.48-6.74.77-4.52,1.04-8.93,2.79-13.86,5.51l-2.72,1.5-.94,2.96c-2.99,9.43-4.21,19.84-5.01,28.79l-1.25,13.99,12.52-6.37c8.78-4.47,37.12-20.34,33.34-36.81-.56-2.43-3.31-10.34-15.35-10.34ZM89.5,161.11c-2.01,0-3.85.36-5.22.68-4.9,1.13-10.32,3.32-16.57,6.72l-2.99,1.63-.83,3.31c-2.36,9.43-5.08,19.64-8.29,31.22l-5.09,18.37,16.49-9.57c.39-.23,38.07-25.81,33.92-43.89-1.2-5.22-5.57-8.47-11.42-8.47Z"/>
  <path class="cls-3" d="M132.76,276.14c4.19-53.16,15.95-108.87,31.84-150.47,10.1-6.35,21.03-11.86,32.05-16.19-15.98,48.68-27.75,100.25-34.16,149.75-9.67,7.05-19.83,12.81-29.73,16.9Z"/>
  <path class="cls-2" d="M135.84,268.57c4.53-50.12,15.81-102.5,30.58-141.64,7.15-4.42,14.82-8.47,22.58-11.94-14.54,45.91-25.39,94.35-31.5,140.73-7.04,5.01-14.41,9.38-21.66,12.85Z"/>
  <path class="cls-3" d="M188.83,266.81c-1.63,0-3.16-.14-4.57-.41,6.79-47.61,18.2-112.24,34.78-157.64,8.87-5.72,19.88-10.78,31.65-14.58-11.66,37.39-23.69,79.51-28.49,115.83l-.73,5.56,6.61-1.52c12.27-2.82,25.79-9.48,36.59-15.68-1.65,12.91-5.33,26.32-9.34,40.02-15.92,10.78-39.2,23.16-56.44,27.11-3.86.89-7.16,1.32-10.06,1.32Z"/>
  <path class="cls-2" d="M187.34,261.58c6.64-45.75,17.7-107.6,33.56-151.6,6.53-4.09,14.18-7.81,22.45-10.94-10.19,33.14-21.69,73.87-26.35,109.11l-1.46,11.11,12.07-2.78c8.88-2.04,19.16-6.14,30.65-12.23-1.86,10.14-4.73,20.46-7.61,30.34-15.41,10.28-37.73,22.04-53.97,25.77-3.57.82-6.58,1.22-9.19,1.22-.05,0-.09,0-.14,0Z"/>
  <path class="cls-3" d="M272.23,242.92c5.84-57.57,17.72-113.26,32.82-153.65,7.06-6.98,18.58-13.32,28.33-15.56,1.8-.41,3.74-.72,5.77-.92-15.07,39.38-25.13,81.23-28.44,118.46l-.62,6.99,6.25-3.18c12.38-6.3,25.45-11.69,38.05-16.65-.9,7.77-2.41,15.74-3.88,23.51-.58,3.05-1.15,6.08-1.69,9.09-13.55,13.15-43.02,24.49-65.09,29.56-3.81.88-7.66,1.66-11.49,2.35Z"/>
  <path class="cls-2" d="M275.3,236.77c5.93-54.89,17.42-108.02,31.74-146.67,6.34-6,16.24-11.46,24.74-13.68-13.85,37.79-23.15,77.72-26.29,113.14l-1.24,13.98,12.51-6.36c10.47-5.33,21.51-10.02,31.55-14.05-.84,5.55-1.91,11.18-2.95,16.66-.51,2.68-1.01,5.31-1.48,7.92-13.41,12.28-41.5,22.93-62.36,27.72-2.05.47-4.13.92-6.21,1.34Z"/>
  <path class="cls-3" d="M356.26,228.82c6.81-19.88,14.71-39.78,22.38-59.08,1.48-3.72,2.95-7.43,4.42-11.14l.56-1.43-.57-1.43c-9.34-23.57-19-47.93-24.88-72.49,8.38-7.08,18.28-13.48,27.06-18.93.01.04.02.09.03.13,3.84,16.73,9.53,32.96,14.06,45.24l3.33,9.02,3.88-8.79c5.24-11.89,11.61-23.62,17.77-34.96,1.42-2.63,2.85-5.25,4.26-7.88,11.32-7.4,24.6-14.06,38.9-19.54-8.15,13.58-15.63,27.58-22.18,40.02-20.81,39.91-40.07,82.1-58.85,128.95-8.59,4.25-19.24,9.16-30.15,12.34Z"/>
  <path class="cls-2" d="M361.17,221.33c6.16-17.33,13.04-34.65,19.72-51.48,1.49-3.75,2.97-7.47,4.43-11.18l1.13-2.86-1.13-2.86c-8.99-22.69-18.28-46.12-24.14-69.62,6.33-5.13,13.48-9.94,20.19-14.21,3.82,15.13,8.86,29.45,12.95,40.55l6.65,18.04,7.75-17.59c5.18-11.75,11.51-23.41,17.63-34.68l.12-.23c1.23-2.26,2.45-4.52,3.67-6.79,7.98-5.14,17.08-9.99,26.77-14.27-6.02,10.54-11.56,20.95-16.44,30.22-20.67,39.64-39.8,81.5-58.47,127.94-5.58,2.74-12.98,6.19-20.84,9.02Z"/>
  <path class="cls-3" d="M336.63,357.63c4.24-37.8,9.92-70.3,17.32-99.15,13.46-13.89,36.8-30.53,54.31-34.56,2.44-.56,4.69-.84,6.69-.84,6.24,0,9.75,2.63,11.05,8.27.49,2.13.56,4.16.51,6.54.08,23.99-20.18,51.42-40.29,68l-2.57,2.12,21.95,28.5c-3.51,4.66-10.42,9.55-16.74,12.78l-27.25-36.44-6.22,35.67c-6.56,2.32-13,5.77-18.77,9.13ZM394.2,249.44c-.66,0-1.35.08-2.08.25-5.4,1.24-12.61,6.78-17.71,11.21l-.82.71-9.66,39.03,8.02-6.61c5.26-4.34,31.36-26.64,28.36-39.72-.69-3-3.03-4.87-6.11-4.87Z"/>
  <path class="cls-2" d="M339.63,350.14c4.08-34.44,9.41-64.31,16.24-91.12,13.1-13.29,35.5-29.16,51.98-32.95,2.18-.5,4.18-.76,5.92-.76,5.34,0,6.91,2.14,7.7,5.6.41,1.79.47,3.57.43,5.7.08,22.91-19.56,49.35-39.04,65.41l-5.13,4.23,22.28,28.92c-2.72,2.82-6.82,5.89-11.34,8.46l-28.27-37.81,12.56-10.35c9.97-8.21,32.8-28.87,29.52-43.14-1.05-4.58-4.76-7.54-9.46-7.54-.92,0-1.87.11-2.84.33-4.9,1.13-11.36,5.15-19.2,11.97l-1.64,1.43-12.42,50.18.64-.52-6.38,36.58c-4.08,1.57-8.01,3.49-11.53,5.38Z"/>
  <path class="cls-3" d="M266.14,377.4c5.4-41.75,13.8-82.2,21.46-116.68,17.75-9.21,37.25-15.93,56.08-21.72l-4.97,21.13-31.71,13.96-.5,1.38c-2.78,7.61-4.74,14.47-6,20.99l-1.09,5.67,28.36-8.96-2.96,15.24-25.52,10.62-.58.89c-4.17,6.41-5.58,19.1-5.91,22.84l-.47,5.26,26.02-8.86-2.19,17.16c-16.04,8.23-33.35,14.95-50.03,21.08Z"/>
  <path class="cls-2" d="M269.11,371c5.36-39.38,13.2-77.07,20.3-109.15,15.98-8.13,33.05-14.13,48.35-18.97l-3.2,13.6-31.48,13.86-1.01,2.75c-2.85,7.79-4.86,14.83-6.15,21.52l-2.18,11.34,28.36-8.96-1.51,7.75-24.8,10.32-1.16,1.78c-4.48,6.89-6,19.37-6.45,24.41l-.93,10.52,25.81-8.79-1.26,9.9c-13.86,6.99-28.55,12.84-42.69,18.11Z"/>
  <path class="cls-3" d="M200.91,392.19c3.38-20.48,7.19-40.68,11.35-60.13,4.47-20.78,8.7-39.51,14.95-57.54,13.97-5.86,28.55-10.92,42.82-15.77l-4.53,18.9-.39.09c-6.94,1.59-13.63,4.19-19.35,7.51l-.98.57-.45,1.05c-3.18,7.39-4.88,15.7-6.39,23.04l-1.65,8.06,6.9-4.48c3.66-2.38,12.1-5.07,18.45-6.92l-5.36,19.07c-6.68,2.58-13.24,5.38-19.59,8.09l-1.34.57-.53,1.36c-2.68,6.96-4.39,14.29-6.04,21.39l-1.29,5.55,5.51-1.44c7.27-1.9,14.67-4.29,22.08-7.11l-5.26,20.69c-15.2,7.55-32.07,13.58-48.89,17.47Z"/>
  <path class="cls-2" d="M203.97,386.42c3.15-18.67,6.67-37.09,10.47-54.83,4.33-20.11,8.41-38.24,14.34-55.68,11.64-4.83,23.67-9.1,35.27-13.07l-2.59,10.78c-6.67,1.69-13.07,4.26-18.62,7.47l-1.97,1.14-.9,2.09c-3.32,7.72-5.06,16.21-6.6,23.7l-3.31,16.12,13.79-8.97c1.41-.92,4.56-2.42,11.57-4.67l-3.19,11.36c-6.2,2.43-12.24,5.01-18.1,7.51l-2.66,1.14-1.06,2.7c-2.78,7.2-4.51,14.65-6.19,21.85l-2.58,11.11,11.02-2.89c5.36-1.4,10.81-3.07,16.28-4.98l-3.27,12.84c-13.06,6.36-27.35,11.6-41.7,15.28Z"/>
  <path class="cls-3" d="M106.86,415.76c1.46-34.1,12.59-79.94,19.51-105.6,18.24-14.86,38.84-25.94,55.28-29.72,2.8-.64,6.44-1.38,9.67-1.38,5.94,0,8.91,2.4,10.26,8.27,2.82,12.3-10.64,26.59-22.43,36.41l-9.25,7.71,11.93-1.66c.57-.08,1.15-.12,1.73-.12,6.3,0,12.29,4.61,13.64,10.51,1.7,7.42-2.77,15.12-6.29,20.26-20.51,30.39-64.99,48.64-84.04,55.33ZM158.91,346.61c-1.62,0-3.23.32-4.44.6-5.84,1.34-13.83,5.07-18.2,8.49l-.99.78-.26,1.23c-1.93,9.29-3.37,17.07-4.07,24.86l-.59,6.54,5.71-3.24c12.66-7.17,33.47-21.06,30.61-33.5-.84-3.66-3.67-5.76-7.76-5.76ZM163.39,303.37c-.76,0-1.57.1-2.4.29-5.32,1.22-12.09,5.44-16.72,8.5l-1.19.79-.28,1.4c-.39,1.94-.77,3.89-1.15,5.83-.91,4.66-1.85,9.47-2.94,14.13l-1.71,7.36,6.67-3.55c1.19-.63,29.13-15.68,25.78-30.28-.63-2.76-2.96-4.47-6.06-4.47Z"/>
  <path class="cls-2" d="M109.39,409.55c2.25-32.93,12.5-75.08,18.82-98.62,17.61-14.18,37.37-24.74,53.02-28.34,2.63-.6,6.01-1.29,8.9-1.29,4.31,0,5.92,1.31,6.91,5.6,1.9,8.27-5.66,19.99-21.28,33l-18.51,15.41,23.85-3.32c.41-.06.84-.09,1.26-.09,4.68,0,9.3,3.52,10.29,7.84,1.4,6.1-2.62,12.94-5.78,17.55-18.43,27.31-57.28,44.7-77.47,52.26ZM157.72,341.98c-1.97,0-3.82.37-5.21.69-6.36,1.46-14.76,5.39-19.55,9.13l-1.98,1.55-.51,2.46c-1.96,9.41-3.41,17.31-4.13,25.25l-1.18,13.07,11.42-6.47c16.48-9.34,35.45-23.38,32.26-37.26-1.19-5.2-5.45-8.43-11.11-8.43ZM162.19,298.74c-1.01,0-2.08.13-3.16.37-5.86,1.35-13,5.77-17.85,8.99l-2.38,1.57-.57,2.8c-.39,1.95-.78,3.9-1.15,5.85-.9,4.61-1.84,9.39-2.91,14.01l-3.42,14.72,13.35-7.09c3.23-1.72,31.38-17.26,27.52-34.08-.99-4.34-4.69-7.14-9.41-7.14Z"/>
  <g>
    <path class="cls-1" d="M292.81,423.15c1.43-1.11,3.64-2.21,5.35-2.67.97-7.56,2.5-15.1,4.11-22.56-2.89.84-5.61,2.96-8.38,4.27.87-4.02.91-7.15,3.4-10.72l2.08-1.56c4.56-3.35,10.39-6.92,15.81-8.5-3.26,11.24-6.75,24.55-8.1,36.06,1.58-1.15,5.19-2.24,7.01-2.73l1.35-.36-2.2,10.01c-6.84,2.12-14.65,5.79-21.14,8.77-.2-3.23.29-6.77.7-9.99Z"/>
    <path class="cls-1" d="M322.26,420.61c-.67-2.49-.55-5.14.29-7.6,7.55-2.76,11.71-3.88,15.99-11.56-2.17,1.48-4.52,2.67-7.06,3.35-3.53.95-9.66.93-10.87-3.53-.45-1.66-.34-3.75-.14-5.48.99-7.28,5.08-13.79,11.19-17.78,1.9-1.24,4.02-2.25,6.2-2.84,5.82-1.57,10.31.62,11.92,6.59.78,2.91.78,6.2.47,9.18-1.62,15.87-12.21,27.02-26.65,32.76-.62-.84-1.08-2.16-1.34-3.09ZM341.17,391.78c0-1.23-.13-2.53-.45-3.72-.62-2.29-1.73-3.94-4.38-3.22-3.27.88-7.53,6.15-6.59,9.63.49,1.82,2.65,1.57,4.05,1.19,2.54-.69,5.21-2.35,7.37-3.88Z"/>
    <path class="cls-1" d="M353.63,415.27c2.91-11.54,9.74-26.47,15.04-36.98-2.53.96-13.53,5.82-15.28,7.19.63-4.07,2.38-8.72,4.5-12.24,9.23-4.83,18.18-8.41,28.1-11.48-8.47,15.27-15.19,31.67-21.19,48.05-3.24,2.43-5.86,4.31-10.17,5.25l-1,.21Z"/>
    <path class="cls-1" d="M384.84,406.85c2.91-11.54,9.74-26.47,15.04-36.98-2.53.96-13.53,5.82-15.28,7.19.63-4.07,2.38-8.72,4.5-12.24,9.23-4.83,18.18-8.41,28.1-11.48-8.47,15.26-15.19,31.67-21.19,48.05-3.24,2.43-5.86,4.31-10.17,5.25l-1,.21Z"/>
  </g>
</svg>